<?xml version="1.0" encoding="UTF-8"?>
<svg id="Layer_1" data-name="Layer 1" xmlns="http://www.w3.org/2000/svg" viewBox="0 0 748.44 643.97">
  <defs>
    <style>
      .cls-1 {
        fill: #f8af3c;
      }

      .cls-2 {
        fill: #af5832;
      }

      .cls-3 {
        fill: #ffe361;
      }

      .cls-4 {
        fill: #ec6b31;
      }

      .cls-5 {
        fill: #f5b03c;
      }
    </style>
  </defs>
  <path class="cls-1" d="m225.28,105.51c7.18,5.12,13.36,10.78,17.7,17.19,4.12,6.1,6.47,14.13,7.88,23.22,19.75,29.51,41.81,58.94,60.31,78.22,11.81,12.34,32.59,32.65,58.01,55.04,7.93,3,15.7,6.72,23.05,11.59,11.72,7.75,20.27,18.37,27.11,29.93,32.3,24.95,67.06,48.14,98.57,61.82,10.48,4.55,20.81,8.43,30.93,11.79,5.67.63,11.69,1.74,18.13,3.52,5.39,1.49,10.67,3.6,15.81,6.19,34.27,8.37,65.04,12.01,89.82,17.17-2.71-11.31-7.87-24.64-17.44-38.67-26.38-38.69-89.75-43.06-233.19-151.31-99.94-75.44-115.31-172.56-193.56-181.25-11.7-1.3-21.25.72-29.06,5.08.02.06.04.11.06.17,3.83,10.96,13.34,29.26,25.87,50.31Z"/>
  <path class="cls-2" d="m739.48,547.52c-16.69,20.25-57.88,42.69-124.75,18.06-5.2-1.91-11.29-3.98-18.16-6.2-.43,7.31-2.13,15.35-5.88,23.51,22.8,7.96,50.91,14.69,83.04,11.69,56.31-5.25,71.25-57.19,71.25-57.19,0,0-.06.07-.19.2-1.39,3.94-3.16,7.31-5.31,9.92Z"/>
  <path class="cls-2" d="m33.98,67.52c3.12-8.72,6.68-17.42,11.58-25.63-3.18,4.83-14.94,24.1-16.83,47.63-1.43,17.93.76,33.26,5.03,47.03,6.4-3.83,13.69-6.23,21.89-7.4-15.71-31.74-24.1-54.83-21.67-61.62Z"/>
  <path class="cls-4" d="m369.18,279.18c-25.43-22.39-46.21-42.7-58.01-55.04-18.5-19.28-40.57-48.72-60.31-78.22,5.08,32.81-2.1,79.51,17.62,99.97,20.83,21.61,62.77,18.95,100.7,33.29Z"/>
  <path class="cls-4" d="m55.65,129.14c4.52-.65,9.32-.93,14.39-.87,61.94.63,85.38,129.31,196.25,231.38,95.69,88.06,190.94,111.75,231.44,121.44,40.44,9.62,82.69,26.38,94.12,50.12,2.57,5.39,5.46,15.75,4.72,28.17,6.87,2.23,12.96,4.29,18.16,6.2,66.88,24.63,108.06,2.19,124.75-18.06,2.15-2.61,3.93-5.99,5.31-9.92,9.36-26.57,1.01-79.07-28.88-100.51-10.67-7.65-25.43-12.17-43.31-15.89-24.78-5.16-55.55-8.8-89.82-17.17,41.44,20.91,73.27,73.06,77.44,80.62,4.69,8.5,18.12,25.5,3.5,35.19-13.38,8.81-26.69-6.44-30.81-14.06-4.12-7.62-34.62-59.81-71.88-71.25s-74.19,17.88-114.69-2.94c-40.5-20.81-46.25-76.31-74.06-105.06s-100.12-21.94-131.81-53.31c-31.69-31.38-21.75-106.19-32.88-128.19s-43.69-30.5-64.81-40.75c-25.25-12.25-34.06-33.44-32.88-55.75,1.5-27.94,15.56-42.62,31.69-32.88,13.12,7.94-1.56,23.5,5.19,40.75,6.48,17,50.19,28.91,78.49,49.12-12.52-21.05-22.04-39.35-25.87-50.31-.02-.06-.04-.11-.06-.17-12.05-33.84-62.84-73.53-118.75-45.58-16.98,8.53-27.58,19.91-35.05,32.43-4.9,8.21-8.46,16.92-11.58,25.63-2.43,6.79,5.96,29.88,21.67,61.62Z"/>
  <path class="cls-4" d="m464.36,396.64c24.91,10.47,47.05-6.51,84.49-2.33-10.12-3.36-20.45-7.25-30.93-11.79-31.52-13.68-66.27-36.87-98.57-61.82,17.98,30.37,24.19,67.25,45.01,75.95Z"/>
  <path class="cls-5" d="m591.86,531.2c-11.44-23.75-53.69-40.5-94.12-50.12-40.5-9.69-135.75-33.37-231.44-121.44-110.88-102.06-134.31-230.75-196.25-231.38-5.07-.05-9.87.22-14.39.87-8.2,1.17-15.49,3.58-21.89,7.4C15.28,147.6,4.29,170.62.54,210.95c-6,65.06,37,213.81,157.5,309.75h0c117.25,93.31,259.56,139.88,348.44,117.88,51.08-12.65,74.52-34.6,84.21-55.69,3.75-8.16,5.44-16.19,5.88-23.51.74-12.43-2.15-22.79-4.72-28.17Z"/>
  <path class="cls-3" d="m548.85,394.31c-37.44-4.18-59.58,12.81-84.49,2.33-20.82-8.69-27.03-45.58-45.01-75.95-6.85-11.56-15.4-22.17-27.11-29.93-7.35-4.87-15.12-8.59-23.05-11.59-37.93-14.34-79.87-11.68-100.7-33.29-19.72-20.46-12.54-67.16-17.62-99.97-1.41-9.09-3.75-17.11-7.88-23.22-4.34-6.41-10.52-12.07-17.7-17.19-28.3-20.21-72.01-32.12-78.49-49.12-6.75-17.25,7.94-32.81-5.19-40.75-16.12-9.75-30.19,4.94-31.69,32.88-1.19,22.31,7.62,43.5,32.88,55.75,21.12,10.25,53.69,18.75,64.81,40.75s1.19,96.81,32.88,128.19c31.69,31.38,104,24.56,131.81,53.31s33.56,84.25,74.06,105.06c40.5,20.81,77.44-8.5,114.69,2.94s67.75,63.62,71.88,71.25c4.13,7.62,17.44,22.88,30.81,14.06,14.62-9.69,1.19-26.69-3.5-35.19-4.17-7.56-36-59.71-77.44-80.62-5.13-2.59-10.41-4.7-15.81-6.19-6.44-1.78-12.46-2.88-18.13-3.52Z"/>
</svg>