<?xml version="1.0" encoding="UTF-8"?>
<svg id="Layer_1" data-name="Layer 1" xmlns="http://www.w3.org/2000/svg" viewBox="0 0 160.01 146.26">
  <defs>
    <style>
      .cls-1 {
        fill: #231f20;
      }
    </style>
  </defs>
  <path class="cls-1" d="m31.67,66.68c.82-7.4,5.65-14.91,13.55-15.9,3.44-.43,6.86.58,9.23,3.14,2.13,2.31,3.14,5.58,2.26,8.63s3.93,4.42,4.82,1.33c2.1-7.29-2.63-14.97-9.59-17.37-7.77-2.67-16.15,1.25-20.76,7.6-2.67,3.68-4.01,8.1-4.51,12.57-.15,1.34,1.26,2.5,2.5,2.5,1.48,0,2.35-1.15,2.5-2.5h0Z"/>
  <path class="cls-1" d="m90.23,63.58c-1.57-2.33-.53-5.42,1.54-7.12,2.52-2.06,6.09-2.44,9.23-2.36,5.18.13,11.67,2.39,12.73,7.97.25,1.33,1.85,2.08,3.08,1.75,1.39-.38,2-1.74,1.75-3.08-1.2-6.3-7.35-10.01-13.24-11.15-6.58-1.27-15.07-.41-19.07,5.66-2.09,3.18-2.52,7.61-.34,10.85,1.79,2.65,6.12.15,4.32-2.52h0Z"/>
  <path class="cls-1" d="m59.93,88.23c3.13,5.47,9.07,9.08,15.38,9.24s12.38-3.29,15.77-8.57c1.74-2.72-2.58-5.23-4.32-2.52-2.46,3.83-6.9,6.21-11.45,6.09s-8.81-2.84-11.06-6.77c-1.6-2.79-5.92-.28-4.32,2.52h0Z"/>
  <path class="cls-1" d="m67.88,22.88c-11.98-10.03-29.14-7.89-41.76-.19C12.62,30.92,4.05,45.83,1.17,61.13s-.23,32.26,7.87,46.21,20.17,24.46,34.33,31.08c16.48,7.7,35.1,9.47,52.94,6.43,9.02-1.53,17.8-4.36,26.08-8.26,8.04-3.79,15.69-8.82,21.73-15.4,10.74-11.68,16.04-27.63,15.9-43.38-.15-16.02-6.1-31.16-16.01-43.64s-23.39-21.79-38.18-27.4C88.19.08,68.76-1.31,50.14,1.1c-4.63.6-9.23,1.4-13.78,2.42-3.14.7-1.81,5.53,1.33,4.82,17.35-3.89,35.61-4.69,53.03-.84,15.28,3.38,29.67,10.39,41.21,21.04,10.83,9.99,18.95,22.95,21.87,37.48,2.86,14.21.76,29.64-6.45,42.29-8.16,14.31-22.74,23.11-38.05,28.16-16.49,5.44-34.54,6.55-51.38,2-14.45-3.91-27.57-12.1-37.34-23.46s-15.36-25.27-15.62-40.03,4.65-29.71,14.7-40.61c8.87-9.61,23.58-16.11,36.64-12.24,2.93.87,5.69,2.32,8.04,4.28,1.03.87,2.52,1.01,3.54,0,.89-.89,1.04-2.66,0-3.54h0Z"/>
</svg>