<?xml version="1.0" encoding="utf-8"?>
<!-- Generator: Adobe Illustrator 27.6.1, SVG Export Plug-In . SVG Version: 6.00 Build 0)  -->
<svg version="1.1" id="Layer_1" xmlns="http://www.w3.org/2000/svg" xmlns:xlink="http://www.w3.org/1999/xlink" x="0px" y="0px"
	 viewBox="0 0 612 792" enable-background="new 0 0 612 792" xml:space="preserve">
<path d="M466.71,432.55c3.34,1.76,6.78,3.37,10.01,5.33c7.23,4.38,13.67,9.64,16.48,18.01c3.87,11.55,1.04,21.78-6.44,31.09
	c-12.95,16.12-30.24,18.49-49.28,16.14c-6.86-0.85-13.55-2.13-20.11-4.23c-3.15-1.01-6.36-1.75-9.14-3.77
	c-2.34-1.7-4.2-1.14-4.74,1.97c-1.4,8.05-3.6,15.91-5.47,23.85c-0.83,3.49-2.42,4.43-5.42,4.27c-7.98-0.44-16.21-0.78-23.59-3.46
	c-7.04-2.56-14.84-4.79-19.98-10.98c-4.48-5.38-6.91-11.83-6.2-18.84c1-9.83,3.52-19.39,6.59-28.8c1.23-3.77,1.91-7.73,2.95-11.57
	c0.62-2.3-0.18-3.31-2.49-3.29c-0.4,0-0.8-0.07-1.19-0.16c-7.48-1.72-7.72-1.72-7.79,6.06c-0.16,16.43-1.98,32.8-1.61,49.24
	c0.05,2.09-0.52,3.42-2.75,3.47c-11.35,0.29-22.66,1.57-34.03,1.08c-5.61-0.24-5.86-0.58-5.74-6.12c0.16-7.18,0.74-7.86-7.96-6.21
	c-5.87,1.11-11.68,2.56-17.71,2.44c-1.8-0.03-3.73,0.57-5.17-1.28c-0.86-1.11-1.59-0.08-2.32,0.45c-8.32,6.02-17.71,8.69-27.91,8.9
	c-2.54,0.05-3.45,2-1.89,4.68c1.82,3.13,2.81,6.53,3.94,9.89c0.9,2.68,0.41,4.39-2.43,6.1c-8.66,5.22-17.46,10.07-27.21,12.87
	c-6.52,1.88-13.73,2.33-19.64-0.34c-7-3.17-12.44-8.98-16.78-15.83c-6.66-10.5-11.24-21.71-14.22-33.69
	c-0.34-1.36-1.36-2.55-1.85-3.89c-1.13-3.1-1.52-7.5-4.14-8.71c-2.82-1.29-6.38,1.63-9.67,2.51c-1.28,0.34-2.45,1.04-3.71,1.44
	c-6.92,2.21-6.99,2.22-9.79-4.55c-2.27-5.48-4.36-11.03-6.55-16.54c-0.29-0.73-0.55-1.52-1.02-2.12c-3.57-4.63-2.93-7.27,2.48-9.6
	c3.65-1.58,7.29-3.23,11.08-4.42c2.56-0.81,2.72-2.14,1.91-4.18c-0.49-1.23-1.15-2.4-1.53-3.66c-0.7-2.28-2.02-2.61-3.94-1.49
	c-0.35,0.2-0.7,0.39-1.03,0.61c-8.27,5.47-10.25,5.52-14.46-2.97c-3.65-7.37-9.26-13.32-13-20.48
	c-6.44-12.35-14.33-23.83-22.18-35.23c-8.46-12.29-16.6-24.83-25.08-37.1c-6.65-9.62-14.23-18.73-19.73-29.19
	c-3.6-6.85-8.85-12.6-13.21-18.94c-1.24-1.8-2.16-3.56-2.19-5.84c-0.03-2.44,0.87-3.63,3.15-4.81c9.96-5.15,19.74-10.65,29.57-16.04
	c6.15-3.38,12.22-6.88,18.41-10.18c2.76-1.47,5.24-1.34,7.11,1.84c1.03,1.75,2.36,2.99,4.21,0.02
	c12.97-20.83,31.32-34.1,55.76-37.98c17.45-2.77,33.67,0.9,48.33,11.02c2.31,1.6,4.59,3.17,6.57,5.16c2.11,2.12,4.13,1.67,5.72-0.54
	c7.4-10.25,17.03-18,27.67-24.56c3.37-2.08,6.95-3.93,10.63-5.4c15.07-6.04,30.39-10.86,47.01-9.85c8.37,0.51,16.84-0.5,25.14,0.98
	c8.84,1.58,17.27,4.62,25.43,8.37c12.48,5.74,22.6,14.35,31.33,24.87c2.98,3.59,4.77,7.89,8.06,11.82
	c2.63-5.81,3.86-11.65,5.46-17.37c1.91-6.86,4.03-13.66,6.1-20.47c0.84-2.74,2.17-4.63,5.66-4.01c13.25,2.38,26.54,4.6,39.8,6.9
	c6.11,1.06,12.17,2.64,18.32,3.14c4.26,0.34,4.48,2.75,4.15,5.58c-0.36,3.08,0.75,2.77,3.09,2.36c3.83-0.67,7.06-2.82,10.91-3.54
	c13.59-2.56,27.13-3.8,40.53,0.57c10.61,3.46,20.72,7.91,28.44,16.53c2.33,2.6,4.3,5.42,5.85,8.43c6.91,13.36,7.43,27.7,5.81,42.25
	c-0.32,2.89,1.06,2.13,2.45,1.63c4.31-1.57,8.36-3.47,13.14-4.02c15.6-1.8,26.28,11.55,27.03,24.33
	c0.71,12.23-12.47,27.9-22.13,31.28c-15.47,5.42-29.58-2.01-33.96-16.76c-1.46,0.8-2.14,2.2-2.99,3.41
	c-9.59,13.71-21.86,24.14-36.83,31.78c-17.82,9.1-36.29,10.26-55.18,5.3c-6.77-1.78-13.17-5.38-18.68-10.08
	c-0.76-0.65-1.4-1.91-2.64-1.52c-1.48,0.47-1.01,1.94-1.24,3.07c-2.07,10.22-5.99,19.9-8.85,29.89c-1.44,5.04-2.15,10.3-4.49,15.12
	c-0.77,1.59,1.07,1.98,2.37,2.45c6.18,2.24,6.2,2.28,4.21,8.59c-1.7,5.39-3.43,10.78-5.25,16.13c-0.72,2.13-0.94,3.95,1.7,4.68
	c2.73,0.75,5.13-0.08,5.3-3.06c0.22-3.6,1.49-6.74,3.14-9.72c7.36-13.28,18.52-20.75,33.8-22.43c11.02-1.21,21.73-0.02,32.36,2.51
	c10.9,2.59,20.16,8.45,29.02,15.03c1.4,1.04,1.33,2.13,0.76,3.79c-2.42,7.14-7.07,13.03-10.79,19.4
	c-6.15,10.52-6.39,10.27-17.4,4.47c-4.94-2.6-10.33-3.9-15.88-4.31C466.95,431.84,466.83,432.2,466.71,432.55z M370.77,288.67
	c-0.52-11.96-0.45-20.48-3.71-29.26c-4.05-10.88-6.99-21.64-14.97-30.9c-7.86-9.13-17.03-15.7-27.55-20.79
	c-8.75-4.23-18.36-4.78-27.85-5.62c-21.48-1.91-42.42-0.31-62.1,9.54c-12.06,6.04-22.01,14.58-30.35,25.1
	c-2.33,2.94-3.13,5.41,0.07,8.57c2.2,2.17,3.5,5.27,5.1,8.02c8.96,15.48,12.48,32.07,10.32,49.88c-1.79,14.72-8.41,27.14-18,38.11
	c-2.24,2.56-3.25,4.37-1.32,7.77c7.27,12.78,16.74,23.52,29.08,31.47c3.52,2.27,7.25,5.3,11.67,5.32
	c11.32,0.05,22.39,0.59,32.99,5.45c6.12,2.81,12.46-0.32,18.67-1.21c2.54-0.37,4.47-1.51,4.46-4.44c-0.02-2.92,2.24-3.24,4.23-3.75
	c4.58-1.16,9.26-0.85,13.92-0.84c1.72,0,3.28-0.2,4.96-1.05c11.34-5.76,20.68-13.87,28.02-24.14c4.83-6.77,9.8-13.58,12.35-21.67
	c1.69-5.36,3.98-10.6,4.64-16.21c0.55-4.69,3.58-8.55,4.18-13.04C370.43,298.55,371.13,292.04,370.77,288.67z M83.68,283.48
	c-3.33-4.86-6.11-9.01-8.99-13.08c-1.74-2.45-3.19-5.79-5.61-6.91c-2.86-1.32-5.21,2.55-8.13,3.38c-0.51,0.15-1.03,0.3-1.5,0.54
	c-9.2,4.75-18.41,9.46-27.18,14.97c-1.23,0.77-2.64,1.58-1.31,3.43c2.31,3.22,4.58,6.48,6.87,9.72c3.36,4.75,7.01,9.33,10.04,14.28
	c6.57,10.72,13.99,20.88,21.03,31.28c6.58,9.73,13.54,19.3,19.92,29.13c10.7,16.52,21.48,33.02,31.75,49.82
	c0.97,1.59,2.01,2.2,3.91,1.22c3.07-1.59,5.94-3.42,8.83-5.32c7.4-4.87,14.97-9.48,22.55-14.06c1.3-0.79,1.12-1.16,0.62-2.41
	c-1.54-3.85-4.84-6.43-6.74-10.02c-5.07-9.61-9.36-19.64-16.07-28.39c-3.06-3.99-4.8-8.99-7.37-13.96c2.2,0.45,3.76,0.69,5.41,1.16
	c7.33,2.1,14.68,5.1,22.49,3.57c11.29-2.21,21.74-6.54,30.44-14.32c8.72-7.79,15.9-16.77,19.48-28.07
	c2.31-7.29,1.85-14.94,2.06-22.51c0.39-14.13-4.76-26.25-12.85-37.41c-1.48-2.04-2.8-4.22-4.46-6.1
	c-5.84-6.6-13.6-10.37-21.45-13.88c-3.38-1.51-6.61-4.04-10-4.59c-7.06-1.15-14.38-1.08-21.51,0.1
	c-12.47,2.06-23.39,7.77-32.97,15.77c-6.4,5.34-12.05,11.37-15.27,19.52C84.83,267.56,84.35,274.94,83.68,283.48z M432,239.69
	c1.35-6.68,2.43-12.48,4.44-18.06c0.81-2.23,2.17-4.57,1.4-6.82c-0.71-2.08-3.21,0.56-4.62-0.79c-0.09-0.08-0.24-0.11-0.37-0.14
	c-6.81-1.68-13.76-2.27-20.51-4.83c-5.76-2.19-12.53-1.78-18.86-2.38c-1.89-0.18-3.14,0.71-3.69,2.83
	c-3.05,11.57-6.45,23.06-9.27,34.69c-0.96,3.96-2.78,7.96-1.21,12.37c2.83,7.94,3.3,16.32,3.98,24.63
	c1.54,18.78-1.6,36.86-7.87,54.56c-5.11,14.41-12.89,27.12-22.91,38.55c-0.51,0.58-1.35,1.1-1.09,1.99c0.3,1.03,1.34,0.75,2.04,0.68
	c6.28-0.67,12.47,0.32,18.7,0.83c2.02,0.16,3.31,0.39,3.27,2.84c-0.05,2.64,1.45,3.72,4.11,3.66c2.66-0.06,5.41-0.17,7.96,0.43
	c4.62,1.09,4.74,1.07,5.58-3.76c1.1-6.34,2.53-12.67,5.05-18.58c3.08-7.2,4.68-14.83,6.73-22.29c1.84-6.72,3.31-13.55,5.51-20.18
	c0.31-0.93,0.12-2.31,1.61-2.43c1.67-0.13,1.67,1.18,2.1,2.33c5.25,13.95,15.31,21.89,30,24.46c8.19,1.44,16.27,1.96,24.53,0.76
	c7.4-1.07,14.52-2.97,21.02-6.58c9.32-5.16,18-11.14,24.35-20.06c5.83-8.19,11.73-16.38,15.41-25.75
	c4.75-12.1,6.83-24.63,5.03-37.79c-1.79-13.11-7.8-23.13-19.03-30.12c-6.09-3.79-12.94-4.24-19.78-5.27
	C471.41,215.79,450.16,221.15,432,239.69z M269.35,477.35c1.02,2.6,2.6,4.92,2.69,7.29c0.15,3.73,2.43,3.45,4.54,2.97
	c7.22-1.64,14.49-2.9,21.8-4.06c1.48-0.23,2.83-0.65,2.07-3.21c-1.23-4.14-2.11-8.45-2.79-12.7c-2.21-13.96-3.58-28.1-7.33-41.75
	c-1.55-5.65-2.15-11.76-5.53-16.79c-7.13-10.6-17.67-15.59-29.96-16.78c-19.23-1.87-36.77,3.5-53.01,13.62
	c-1.57,0.98-1.78,2.27-1.39,3.76c1.41,5.35,2.9,10.67,4.37,16.01c0.49,1.78,1.41,2.33,3.23,1.43c3.34-1.64,6.77-3.1,10.15-4.65
	c8.11-3.71,16.34-6.79,25.52-6.2c6.14,0.4,10.5,3.12,13.01,8.8c1.16,2.62,1.26,3.93-2.44,4.12c-11.81,0.6-23.48,2.25-34.22,7.68
	c-10.77,5.44-20.16,12.3-20.78,25.75c-0.48,10.53,2.67,20.03,11.02,26.99c6.73,5.62,15.01,6.73,23.51,7.14
	C249.6,497.54,261.15,490.91,269.35,477.35z M460.99,394.69c-4.67-0.05-8.8-0.19-12.89,0.74c-13.81,3.12-24.25,10.37-28.02,24.57
	c-1.98,7.48-1.77,15.24,5.05,20.83c3.37,2.76,7.09,5.13,10.8,7.44c5.18,3.23,10.47,6.29,14.19,11.31c2.22,2.99,1.58,6.33-1.52,6.99
	c-4.81,1.03-9.64,1.41-14.63,0.61c-8.27-1.32-15.77-4.05-21.92-9.91c-1.9-1.81-3.49-1.24-4.39,0.88c-2.3,5.49-5.74,10.38-7.86,16
	c-1.13,2.98-0.58,4.3,1.66,5.9c13.92,9.96,29.86,14.27,46.53,14.55c12.75,0.22,25.01-2.94,33.64-13.99
	c6.18-7.91,10.27-20.64,2.44-30.17c-5.24-6.37-12.11-10.1-19.39-13.41c-3.23-1.47-6.56-2.85-9.35-5.13c-2.72-2.23-3-5.9-0.6-7.9
	c3.94-3.29,8.48-4.78,13.63-4c7.78,1.17,15,3.95,22.05,7.34c0.95,0.46,2.51,1.73,3.65-0.53c2.68-5.3,5.68-10.43,8-15.92
	c0.94-2.23,0.47-3.25-1.55-4.45c-5.51-3.29-11.63-4.98-17.62-6.99c-3.07-1.03-6.07-2.09-9.05-3.41
	C469.7,394.2,465,394.5,460.99,394.69z M198.41,530.26c12.15,0.33,21.61-4.17,30.58-10.14c1.26-0.83,1.91-1.22,0.86-3.01
	c-1.93-3.28-3.61-6.81-4.74-10.44c-1.36-4.39-3.29-3.81-6.55-1.97c-7.01,3.96-12.55,2.73-17.02-3.62
	c-4.91-6.98-8.13-14.78-10.74-22.89c-2.3-7.13-4.97-14.15-7.72-21.12c-0.62-1.57-0.42-1.76,0.94-2.53
	c5.65-3.21,11.54-5.86,17.69-7.85c2.93-0.94,3.38-2.52,2.59-4.99c-1.5-4.7-4.42-8.71-6.51-13.09c-1.57-3.31-2.98-2.7-5.5-1.85
	c-5.53,1.85-10.4,5.17-16.13,6.64c-2.46,0.63-3.49,0.12-4.35-1.86c-2.21-5.11-4.69-10.13-6.51-15.38c-1.24-3.56-3.11-3.41-6.04-2.59
	c-6.54,1.82-12.42,5.25-18.79,7.42c-2.38,0.81-1.81,2.01-1.13,3.68c2.23,5.51,4.23,11.13,6.54,16.61c1.02,2.4,0.5,3.67-1.85,4.56
	c-4.47,1.7-8.84,3.65-13.36,5.19c-2.82,0.96-3.07,2.42-1.84,4.73c2.17,4.08,3.46,8.54,5.78,12.59c1.26,2.21,2.13,2.55,4.61,2.06
	c4.98-1,9.26-3.83,14.26-4.75c1.99-0.37,2.9,0.2,3.39,1.65c4.14,12.14,10.69,23.25,15,35.31c2.32,6.49,4.89,12.73,9.15,18.37
	C185.78,527.28,191.14,531.43,198.41,530.26z M380.19,483.92c-0.34-3.1,0.59-6.53,1.89-9.93c2.64-6.91,5.49-13.75,7.42-20.92
	c1.34-4.99,3.3-5.94,8.19-4.12c3.42,1.28,6.91,1.85,10.51,2.03c1.26,0.06,2.2,0.06,2.73-1.54c1.32-4.01,2.98-7.9,4.38-11.88
	c1.46-4.14,1.09-4.56-3.38-5.28c-4.7-0.76-9.48-1-13.86-3.37c-2.22-1.2-2.83-2.18-1.97-4.63c2.36-6.73,4.74-13.46,6.3-20.44
	c0.51-2.28,0.24-3.28-2.4-3.72c-5.65-0.95-11.32-2.05-16.58-4.51c-4.7-2.19-6.79-1.05-8.1,4.13c-1.61,6.38-3.45,12.7-5.13,19.06
	c-0.71,2.68-2,3.61-4.93,2.74c-3.41-1.01-7.01-1.41-10.53-2.03c-2.14-0.38-3.84,0.3-4.07,2.64c-0.42,4.26-2.27,8.14-3.09,12.29
	c-0.38,1.94-0.08,2.51,1.94,2.83c3.5,0.55,6.95,1.5,10.39,2.4c1.84,0.49,3.18,0.88,2.27,3.77c-3.45,10.91-6.54,21.94-9.53,32.98
	c-1.62,5.98-3.51,12.18-1.55,18.34c2.82,8.87,8.98,14.23,18.28,16.31c6.73,1.5,13.7,1.27,20.3,3.36c1.82,0.58,1.53-0.76,1.77-1.74
	c0.89-3.58,1.55-7.24,2.79-10.7c2.6-7.27,2.72-7.23-5.1-7.88C381.58,493.47,380.17,491.96,380.19,483.92z M334.08,395.29
	c-1.16-2.09-1.02-4.09-1.13-6.04c-0.07-1.36-0.22-2.05-2.04-2c-7.35,0.22-14.7,0.31-22.05,0.12c-3.11-0.08-3.58,1.24-3.29,3.79
	c0.61,5.32,0.69,10.66,0.59,16.01c-0.49,28.71-0.88,57.42-1.49,86.13c-0.08,3.68,0.56,5.27,4.67,4.89
	c6.37-0.58,12.79-0.74,19.19-0.83c2.97-0.04,4.11-0.81,4.21-4.12c0.64-20.68-0.77-41.38,0.87-62.05
	c0.73-9.22,4.86-16.12,12.83-20.47c4.82-2.63,10.27-3.5,15.83-3.2c1.1,0.06,2.84,0.82,3.23-0.6c1-3.57,2.29-7.63,2.06-10.79
	c-0.25-3.35-0.04-6.25,0.75-9.37c0.46-1.8,0.79-3.98-2.08-4.09c-6.11-0.23-12.07-0.18-17.91,2.62
	C343.01,387.86,338.53,391.4,334.08,395.29z M221.36,390.39c-13.02-11.11-24.39-22.7-31.45-38.13
	c-10.37,7.78-21.91,12.88-34.96,14.23c-2.82,0.29-3.28,1.49-1.76,3.87c1.07,1.66,1.71,3.6,2.71,5.32
	c5.15,8.93,10.36,17.83,15.5,26.77c1.23,2.14,1.88,4.39,0.15,6.67c-0.85,1.13-1.08,2.4-0.53,3.76c1.09,2.7,2,5.49,3.27,8.1
	c2.58,5.31,2.67,5.28,8.58,3.45c1.51-0.47,3-0.98,4.48-1.52c5.68-2.1,6.09-2.81,4.95-8.39c-1.95-9.56-1.96-9.58,6.76-14.27
	c1.4-0.75,2.51-1.84,3.98-2.56C208.87,394.81,214.89,392.48,221.36,390.39z M576.78,299.44c0-0.15,0.07-1.49-0.01-2.82
	c-0.36-5.61-3.45-9.71-8.12-11.09c-9.61-2.84-16.84,0.96-22.82,8.14c-5.03,6.03-5.62,12.49-3.04,20c2.5,7.28,9.8,10.54,16.06,9.05
	C568.09,320.53,577.85,312.16,576.78,299.44z M437.21,460.98c-4.42-4.58-10.29-5.19-14.44-8.72c-0.68-0.58-1.77-2.3-2.92-0.6
	c-0.87,1.28-0.32,2.82,0.91,3.5C425.7,457.89,430.33,461.52,437.21,460.98z M291.29,406.24c1.88,4.05,4.19,7.57,5.89,11.52
	c0.45-3.54,0.36-6.97,0.49-10.38c0.08-2.08-0.94-2.61-2.65-2.29C293.77,405.32,292.58,405.83,291.29,406.24z M396.91,489.03
	c0.05-0.21,0.09-0.43,0.14-0.64c-2.28-1.34-4.55-2.68-6.83-4.02c-1.21-0.71-2-0.21-2.51,0.93c-0.56,1.25-0.45,2.67,0.94,2.93
	C391.35,488.73,394.15,488.79,396.91,489.03z M517.13,422.46c5.83,0,9.84,3.78,9.82,9.27c-0.02,4.98-4.52,9.42-9.51,9.37
	c-4.86-0.04-9.5-4.63-9.46-9.34C508.02,426.12,511.64,422.45,517.13,422.46z M513.39,425.43c-3.58,2.87-4.02,5.48-2.58,9.75
	c1.17,3.46,3.87,3.57,6.71,3.55c0.97-0.01,2.7,0.08,2.23-1.37c-0.44-1.37-1.7-2.76-2.98-3.49c-1.46-0.82-1.49,0.87-1.77,1.8
	c-0.18,0.59-0.06,1.39-1.62,1.15C513.39,433.24,513.39,429.53,513.39,425.43z M524.5,431.53c-0.23-0.83,0.02-2.55-1.22-2.42
	c-2.04,0.21-2.26,2.39-2.66,3.98c-0.24,0.97,0.78,1.84,1.73,1.79C524.27,434.76,524.48,433.23,524.5,431.53z M319.31,296.11
	c-0.23,12.22-2.32,22.48-8.97,31.28c-5.38,7.11-12.8,10.62-21.58,12.04c-8.83,1.43-16.69,0.03-24.04-5.19
	c-8.25-5.85-12.32-14.07-14.98-23.48c-3.85-13.62-3.58-27.06,2.04-39.96c4.27-9.79,12.04-15.72,23.01-17.33
	c6.57-0.97,12.88-0.74,19.29,0.84c6.7,1.65,11.87,5.35,16.13,10.63C317.95,274.51,318.41,286.06,319.31,296.11z M260.19,297.5
	c-0.04,4.15,0.17,8.32,1.29,12.29c3.2,11.33,8.6,22,24.19,21.91c12.03-0.07,19.93-5.85,23.15-16.67c3.94-13.23,3.31-26.23-3.78-38.4
	c-2.48-4.25-5.56-7.76-11.02-8.95c-4.49-0.98-8.91-1.57-13.41-1.25c-8.29,0.6-14.25,4.36-17.85,12.35
	C259.98,284.94,260.25,291.16,260.19,297.5z M160.3,304.31c0.65,8.62-2.19,16.18-9.26,21.5c-13.24,9.98-27.1,6.23-37.1-5.56
	c-3.7-4.36-6.37-9.42-8.95-14.48c-2.67-5.22-3.83-10.75-2.58-16.62c0.08-0.38,0.15-0.84,0.02-1.19c-3.21-8.48,1.94-14.01,7.14-19.2
	c7.37-7.37,19.56-9.31,28.85-4.61c6.36,3.22,11.65,8.07,15.19,14.21C158.14,286.24,160.8,294.82,160.3,304.31z M113.75,295.71
	c1.03,7.63,5.96,16.33,13.51,23.56c8.44,8.07,18.51,3.56,23.56-4.37c3.63-5.69,1.56-11.69,0.32-16.44
	c-1.42-5.41-4.27-11.27-8.08-15.95c-2.97-3.64-6.3-6.9-11.68-7.43C119.96,273.97,113.81,282.72,113.75,295.71z M458.11,244.82
	c14.82-0.24,26.47,9.56,27.29,22.55c0.68,10.81-1.31,20.88-6.7,30.1c-5.83,9.96-14.47,16.05-26.19,17.9
	c-7.78,1.23-14.24-0.48-20.25-5.45c-5.09-4.22-6.55-9.95-7-15.91c-1.11-14.47,3.25-27.38,13.12-37.99
	C444.62,249.3,452.63,245.29,458.11,244.82z M437.81,291.9c-0.32,2.95,0.47,5.69,1.08,8.39c1.37,6.11,9.53,10.06,15.52,7.91
	c8.36-3,14.93-8.37,18.85-16.1c4.22-8.32,7.29-17.04,1.39-26.33c-4.91-7.73-12.81-9.92-20.58-4.97
	C442.65,268.09,439.49,279.62,437.81,291.9z M253.36,447.36c1.18,0,2.92-0.14,4.64,0.03c3.95,0.38,5.91,2.69,4.86,6.52
	c-2.27,8.29-6.39,15.04-15.63,17.26c-7.15,1.72-16.54-2.45-14.59-13.12c0.64-3.53,3.54-5.56,6.53-7.02c2.1-1.02,4.2-2.13,6.55-2.75
	C248.09,447.68,250.45,447.74,253.36,447.36z M245.03,466.02c3.16,0.37,5.41-1.54,7.37-4.09c0.8-1.04,1.47-2.22,0.71-3.25
	c-0.75-1.02-2.19-0.75-3.36-0.4c-2.03,0.62-4.02,1.36-6.06,1.96c-1.95,0.57-4.4,1.02-3.86,3.62
	C240.32,466.12,242.73,466.04,245.03,466.02z"/>
</svg>
