<?xml version="1.0" encoding="utf-8"?>
<!-- Generator: Adobe Illustrator 27.6.1, SVG Export Plug-In . SVG Version: 6.00 Build 0)  -->
<svg version="1.1" id="Layer_1" xmlns="http://www.w3.org/2000/svg" xmlns:xlink="http://www.w3.org/1999/xlink" x="0px" y="0px"
	 viewBox="0 0 800 800" enable-background="new 0 0 800 800" xml:space="preserve">
<g>
	<path fill="#D46F1E" d="M741.94,429.55c-10.3,14.12-41.66,42.29-65.31,62.14C648.25,515.5,564.81,593.5,516.19,627.38
		c-6.32,4.4-13.1,8.4-20.23,11.98l0.86,71.38l0.12,0.01c0,0,60.5-40.31,113.69-86.19s138.31-119,144.56-132.19h0
		c5.25-11.06,2.5-46.31,1.63-60.06c-0.12-1.75-0.36-3.36-0.7-4.86c-1.55,0.87-3.14,1.55-4.74,1.98
		C748.66,430.18,745.42,430.09,741.94,429.55z"/>
	<path fill="#E48216" d="M330.94,651.19C269.5,631,252.06,592.5,252.06,592.5s-76.62,8.87-138.44-14.69h0
		c-37.93-14.47-47.52-46.76-40.02-52.85c-3.07-3.38-5.56-6.91-7.52-10.59c-3.81,2.79-7.43,8.06-9.34,18.51
		c-3.69,20.19,0.06,60.94,14.75,75.62c31.31,31.31,74,41.12,107.19,44.5c29.38,3,46.12,0.12,54.31,4.81
		c14.25,8.25,14.56,24.81,51.62,46.38c28,16.31,76.75,31.62,110.62,31.62c56.38,0,101.56-25.06,101.56-25.06l0-0.01l-0.86-71.38
		C448.23,663.36,384.39,668.75,330.94,651.19z"/>
	<path fill="#FADFB1" d="M427.19,649.38c-46.75-4.56-125.88-49.38-177.88-61.44C198,576,132.88,558.56,102.62,544.81
		c-12.79-5.81-22.3-12.46-29.02-19.85c-7.5,6.09,2.09,38.38,40.02,52.85h0c61.81,23.56,138.44,14.69,138.44,14.69
		s17.44,38.5,78.88,58.69c53.45,17.56,117.3,12.17,165.02-11.83c7.13-3.59,13.91-7.58,20.23-11.98
		c48.62-33.88,132.06-111.88,160.44-135.69c23.65-19.85,55.01-48.02,65.31-62.14c-5.71-0.88-12.06-2.99-17.78-4.72
		c-6.9,7.31-14.33,15.14-21.47,22.6c-1.05,6.28-2.78,12.27-6.49,15.95c-6.94,6.89-14.15,10.37-21.43,12.42
		c-30.33,28.07-124.96,101.24-144.88,119.45c-0.27,0.25-0.55,0.51-0.83,0.76c-1.36,4.09-2.68,7.61-4.79,9.92
		c-2.34,2.56-6.94,4.76-12.47,6.15C490.59,631.16,461.63,652.77,427.19,649.38z"/>
	<path fill="#EC8B7A" d="M674.76,475.8c-3.02,0.85-6.05,1.46-9.07,1.95c-10.31,1.69-23.56,21.81-35.06,24.12
		c-11.5,2.31-24.75-8.06-24.75-8.06s-6.38,32.44-16.12,42.81c-9.75,10.37-38.12,24.94-49,36.38c-6.88,7.24-9.36,15.97-11.71,23.01
		c0.28-0.26,0.56-0.51,0.83-0.76C549.8,577.04,644.43,503.86,674.76,475.8z"/>
	<path fill="#EC8B7A" d="M708.25,423.12c-3.93,2.88-3.84,13.97-5.57,24.3c7.14-7.46,14.57-15.29,21.47-22.6
		C717.09,422.69,710.99,421.12,708.25,423.12z"/>
	<path fill="#EC8B7A" d="M263.81,541c0,0-0.08,0.09-0.22,0.24l0.76,0.45C264,541.25,263.81,541,263.81,541z"/>
	<path fill="#EC8B7A" d="M102.62,544.81C132.88,558.56,198,576,249.31,587.94c52,12.06,131.12,56.88,177.88,61.44
		c34.45,3.4,63.4-18.21,84.59-37.29c-8.09,2.03-18.16,2.35-26.03-0.4c-13.25-4.62-32.56-25.37-53-30.94c-29-7.88-54-9.88-75.81-9.88
		c-21.81,0-11.44-6.87-18.38-6.87c-6.68,0-12.27,6.37-31.15,5.84c0.87,0.75,1.66,1.48,2.34,2.16c6.88,6.94,3.44,10.75-15.62,9.06
		c-20.06-1.75-46.5-9.31-71.81-17.38c-13.56-4.33-26.15-12.1-33.25-16.96c-2.58-0.4-5.29-0.82-8.18-1.29
		c-11.15-1.8-19.24-3.81-25.33-5.94c-11.44-2.21-24.79-5.75-36.67-11.12c-26.12-11.87-39.62-25.25-41.38-31.62
		c-1.75-6.38,12.62-0.63,20.69,1.12c1.72,0.37,3.65,0.69,5.62,0.96c2.55-3.93,8.63-9.21,8.63-9.21S94,479.12,79.62,472.81
		c-1.68-0.74-3.21-1.27-4.64-1.65c-7.49,3.33-14.54,9.21-14.54,19.53c0,8.45,1.77,16.36,5.65,23.68c1.95,3.68,4.44,7.22,7.52,10.59
		C80.33,532.35,89.83,539,102.62,544.81z M392,587c26.62,2.69,50.25,4.75,51.75,23.56c2.19,27.5-36.19,15.5-58.06,6.31
		s-51.94-25.12-51.19-31.62C335.12,579.94,364,584.19,392,587z"/>
	<path fill="#D45E51" d="M77.5,496.75c1.75,6.37,15.25,19.75,41.38,31.62c11.88,5.37,25.23,8.91,36.67,11.12
		c-15.28-5.36-17.88-11.54-24.04-17.31c-8.62-8.06-26.94-17.06-28.62-19.94c-0.45-0.76,0.02-2,0.93-3.41
		c-1.97-0.27-3.9-0.59-5.62-0.96C90.12,496.12,75.75,490.38,77.5,496.75z"/>
	<path fill="#D45E51" d="M294.12,581.06c19.06,1.69,22.5-2.12,15.62-9.06c-0.68-0.68-1.47-1.41-2.34-2.16
		c-0.72-0.02-1.46-0.05-2.23-0.09c-18.74-1.02-37.48-23.78-40.84-28.06l-0.76-0.45c-1.14,1.21-7.09,6.88-19.9,8.38
		c-13.31,1.56-22.3,2.05-54.63-2.9c7.1,4.87,19.7,12.63,33.25,16.96C247.62,571.75,274.06,579.31,294.12,581.06z"/>
	<path fill="#D45E51" d="M385.69,616.88c21.88,9.19,60.25,21.19,58.06-6.31c-1.5-18.81-25.12-20.87-51.75-23.56
		c-28-2.81-56.88-7.06-57.5-1.75C333.75,591.75,363.81,607.69,385.69,616.88z"/>
	<path fill="#B7D019" d="M773.25,395.5c-2.88-12.06-5.75-13.81-5.75-20.69c0-6.88,7.5-18.38-1.75-29.88c-0.8-1-2.71-2.37-5.54-4.06
		c-6.22,10.49-17.22,17.24-29.05,21.58c-0.72,6.93-14.14,21.1-23.85,37.35c-7.5,12.62-25,54.31-49.12,65.81
		c-15.23,7.26-42.15,8.57-59.94,8.54c-1.43,16.11-8.4,36.75-32.06,50.08c-13.51,7.65-26.59,11.12-38.2,12.26
		c0.99,1.94,1.54,3.5,1.45,4.49c-0.62,6.87-38.5,28.19-47.75,28.75c-9.25,0.56-17.31-3.5-44.88-10.94
		c-27.56-7.44-59.81-8.62-63.81-14.94c-0.6-0.95-0.37-3.38,0.45-6.81c-15.73,5.22-34.12,7.5-55.01,3.93
		c-30.66-5.23-50.37-16.03-63.01-27.17c-21.69,0.77-65.12,2.18-72.8,1.29c-10.31-1.19-52.88-36.25-55.75-39.69
		c-1.14-1.36-0.65-4.81,0.36-8.47c-4.68-2.01-9.24-4.51-13.55-7.6c-21.16-15.2-24.32-39.27-24.72-48.51
		c-4.81-1.98-9.45-4.2-13.84-6.68c-5.99-3.38-11-7.31-15.22-11.59c-8.19,12.47-16.89,23.5-21.53,22.46
		c-10.31-2.31-14.94-9.19-19.56-3.44s-5.19,49.44,19,56.38c21.35,6.12,26.39,0.27,37.17,3.16c1.43,0.38,2.96,0.91,4.64,1.65
		c14.38,6.31,32.81,16.81,32.81,16.81s-6.09,5.28-8.63,9.21c-0.91,1.41-1.37,2.65-0.93,3.41c1.69,2.88,20,11.88,28.62,19.94
		c6.17,5.77,8.76,11.95,24.04,17.31c6.09,2.14,14.18,4.14,25.33,5.94c2.89,0.47,5.6,0.89,8.18,1.29c32.33,4.95,41.32,4.46,54.63,2.9
		c12.81-1.5,18.76-7.17,19.9-8.38c0.14-0.15,0.22-0.24,0.22-0.24s0.18,0.25,0.53,0.69c3.36,4.28,22.1,27.04,40.84,28.06
		c0.76,0.04,1.5,0.07,2.23,0.09c18.88,0.53,24.47-5.84,31.15-5.84c6.94,0-3.44,6.87,18.38,6.87c21.81,0,46.81,2,75.81,9.88
		c20.44,5.56,39.75,26.31,53,30.94c7.87,2.75,17.94,2.43,26.03,0.4c5.53-1.39,10.14-3.58,12.47-6.15c2.11-2.32,3.43-5.84,4.79-9.92
		c2.35-7.04,4.82-15.78,11.71-23.01c10.88-11.44,39.25-26,49-36.38c9.75-10.38,16.12-42.81,16.12-42.81s13.25,10.38,24.75,8.06
		c11.5-2.31,24.75-22.44,35.06-24.12c3.02-0.49,6.05-1.1,9.07-1.95c7.28-2.05,14.49-5.53,21.43-12.42
		c3.71-3.69,5.43-9.68,6.49-15.95c1.73-10.32,1.65-21.42,5.57-24.3c2.74-2.01,8.84-0.44,15.9,1.7c5.72,1.73,12.08,3.84,17.78,4.72
		c3.48,0.54,6.73,0.63,9.44-0.11c1.6-0.43,3.19-1.11,4.74-1.98C766.83,421.43,775.76,406.04,773.25,395.5z"/>
	<path fill="#96A819" d="M234.67,483.93c-12.71,1.82-23.25,2.89-28.42,2.45c-5.28-0.46-12.73-5.56-20.8-12.77
		c-13.03,1.57-36.85,2.56-58.22-6.63c-1.01,3.66-1.5,7.1-0.36,8.47c2.88,3.44,45.44,38.5,55.75,39.69
		c7.68,0.88,51.11-0.52,72.8-1.29C242.37,502.33,236.87,490.45,234.67,483.93z"/>
	<path fill="#96A819" d="M488.29,531.95c-6.46,4.44-12.48,7.4-18.1,7.86c-14.59,1.19-38.38-11.92-57.55-24.53
		c-10.25,8.29-23.37,16.53-39.18,21.78c-0.82,3.43-1.05,5.86-0.45,6.81c4,6.31,36.25,7.5,63.81,14.94
		c27.56,7.44,35.62,11.5,44.88,10.94c9.25-0.56,47.12-21.88,47.75-28.75c0.09-0.99-0.46-2.55-1.45-4.49
		C509.97,538.28,495.47,534.46,488.29,531.95z"/>
	<path fill="#96A819" d="M650.75,442.06c-5.62,4.19-27.87,11.08-52.34,20.19c0.21,3.48,0.23,7.53-0.16,11.91
		c17.79,0.02,44.71-1.29,59.94-8.54c24.12-11.5,41.62-53.19,49.12-65.81c9.7-16.25,23.12-30.42,23.85-37.35
		c-15.16,5.57-31.68,7.18-41.26,7.64C677.63,397.96,662.67,433.15,650.75,442.06z"/>
	<path fill="#DC0D2A" d="M598.41,462.25c-15.3,5.69-31.46,12.25-44.97,19.56c-25.83,13.97-47.2,37.8-65.15,50.14
		c7.18,2.51,21.69,6.33,39.7,4.56c11.62-1.14,24.69-4.61,38.2-12.26c23.66-13.34,30.64-33.97,32.06-50.08
		C598.64,469.78,598.62,465.73,598.41,462.25z"/>
	<path fill="#DC0D2A" d="M689.9,370.1c9.58-0.45,26.1-2.07,41.26-7.64c11.83-4.34,22.83-11.1,29.05-21.58
		c2.47-4.16,4.19-8.9,4.91-14.31c3.68-27.77-11.18-40.17-20.11-45.03c-8.33,13.94-29.42,42.1-39.07,55.9
		C701.83,343.31,696.23,355.73,689.9,370.1z"/>
	<path fill="#DC0D2A" d="M400.15,506.73c-28.09-0.11-59.36-4.71-88.65-18.04c-9.94-4.52-18.77-8.98-26.62-13.31
		c-16.12,3.03-34.77,6.34-50.21,8.55c2.2,6.52,7.7,18.4,20.75,29.9c12.64,11.14,32.35,21.93,63.01,27.17
		c20.89,3.57,39.29,1.29,55.01-3.93c15.82-5.25,28.93-13.49,39.18-21.78C408.16,512.34,403.94,509.43,400.15,506.73z"/>
	<path fill="#DC0D2A" d="M185.45,473.6c-16.97-15.16-36.65-39.63-44.6-49.8c-17.61-2.3-35.73-6.28-51.89-12.93
		c0.4,9.24,3.56,33.31,24.72,48.51c4.31,3.09,8.87,5.58,13.55,7.6C148.6,476.16,172.42,475.17,185.45,473.6z"/>
	<path fill="#FEDF64" d="M185.45,473.6c8.07,7.21,15.52,12.32,20.8,12.77c5.17,0.45,15.71-0.63,28.42-2.45
		c15.44-2.21,34.08-5.52,50.21-8.55c-50.64-27.92-60.25-50.5-60.25-50.5s-40.32,4.59-83.77-1.08
		C148.8,433.97,168.48,458.44,185.45,473.6z"/>
	<path fill="#FEDF64" d="M603.75,398c-66.4,54.79-110.63,89.15-113.86,91.66c-0.04,0.06-0.09,0.11-0.14,0.15
		c-6.43,5.35-43.78,17.1-89.6,16.92c3.79,2.7,8.01,5.61,12.49,8.55c19.17,12.61,42.97,25.72,57.55,24.53
		c5.62-0.46,11.64-3.43,18.1-7.86c17.95-12.33,39.32-36.16,65.15-50.14c13.51-7.31,29.67-13.87,44.97-19.56
		c24.47-9.11,46.73-16,52.34-20.19c11.92-8.91,26.88-44.1,39.15-71.97c6.32-14.37,11.93-26.79,16.04-32.66
		c9.65-13.8,30.74-41.96,39.07-55.9c2.08-3.48,3.38-6.09,3.49-7.35c0.23-2.62-0.62-7.64-1.71-12.6
		C726.25,289.84,666.97,345.83,603.75,398z"/>
	<path fill="#D46F1E" d="M737,197.75c-0.13,0.11-0.29,0.21-0.5,0.31c-14.08,17.45-59.32,57.8-79,75.81
		C633.81,295.5,530.25,383.5,499.12,408.56c-2.69,2.16-5.51,4.15-8.46,5.99c0.82,22.12,2.56,70.97-0.78,75.11
		c3.24-2.51,47.46-36.87,113.86-91.66c63.22-52.17,122.5-108.16,143.04-136.41c1.88-2.58,3.44-4.94,4.64-7.03
		c4.12-7.12,5.94-51,6.12-62c0.26-13.5-4.95-19.24-8.04-21.45c1.11,1.19,1.74,2.4,1.85,3.64C751.94,181.06,745.06,190.88,737,197.75
		z"/>
	<path fill="#E38211" d="M88.97,410.86c16.16,6.65,34.28,10.64,51.89,12.93c43.45,5.67,83.77,1.08,83.77,1.08s9.61,22.58,60.25,50.5
		c7.85,4.33,16.68,8.79,26.62,13.31c29.29,13.33,60.56,17.93,88.65,18.04c45.82,0.19,83.17-11.57,89.6-16.92
		c0.05-0.04,0.09-0.1,0.14-0.15c3.33-4.14,1.6-52.99,0.78-75.11c-31.25,19.46-77.54,21.18-142.47,14.33
		c-71.06-7.5-100.88-65.69-100.88-65.69S164.06,374,104.5,351s-46-62.94-33.81-73.75s83.94-69.06,111.69-91.38
		S308.44,86.06,325.88,83c15.56-2.69,109.88,18.5,173.94,33.19c71.06,16.25,237.56,52.75,240.94,74.44c0.2,1.27-1.38,3.88-4.25,7.44
		c0.21-0.1,0.37-0.2,0.5-0.31c8.06-6.88,14.94-16.69,14.38-23c-0.11-1.25-0.75-2.45-1.85-3.64c-4.5-4.85-16.95-9.56-34.96-16.48
		c-22.44-8.62-153-42.5-197.81-52.88S338.56,65.5,323,68.38s-115.56,76.5-138,94.31C162.56,180.5,57.31,268.44,49.25,277.06
		c-8.06,8.62-10.38,27.62-10.94,47.75C37.84,341.55,39,371.44,59.9,392.6c4.22,4.28,9.24,8.2,15.22,11.59
		C79.52,406.67,84.16,408.88,88.97,410.86z"/>
	<path fill="#FADFB1" d="M657.5,273.88c19.68-18.01,64.92-58.36,79-75.81c2.87-3.56,4.45-6.17,4.25-7.44
		c-3.38-21.69-169.88-58.19-240.94-74.44C435.75,101.5,341.44,80.31,325.88,83c-17.44,3.06-115.75,80.56-143.5,102.88
		s-99.5,80.56-111.69,91.38S44.94,328,104.5,351s142.81,12.19,142.81,12.19s29.81,58.19,100.88,65.69
		c64.93,6.85,111.22,5.14,142.47-14.33c2.95-1.84,5.78-3.82,8.46-5.99C530.25,383.5,633.81,295.5,657.5,273.88z"/>
</g>
</svg>
