<?xml version="1.0" encoding="utf-8"?>
<!-- Generator: Adobe Illustrator 27.6.1, SVG Export Plug-In . SVG Version: 6.00 Build 0)  -->
<svg version="1.1" id="Layer_1" xmlns="http://www.w3.org/2000/svg" xmlns:xlink="http://www.w3.org/1999/xlink" x="0px" y="0px"
	 viewBox="0 0 800 800" style="enable-background:new 0 0 800 800;" xml:space="preserve">
<style type="text/css">
	.st0{fill:#FFA000;}
	.st1{fill:#8BC34A;}
	.st2{fill:#795548;}
	.st3{fill:#FF3D00;}
	.st4{fill:#FFC107;}
	.st5{fill:#F57C00;}
</style>
<g>
	<path class="st0" d="M716.4,442.1c-0.2,9.5,8.8,13.8,14.9,20.4c-1.2-11.7-3.2-23.2-5.9-34.5C720.5,431.1,716.6,435.3,716.4,442.1z"
		/>
	<path class="st0" d="M710.6,382.4c0.3,1.6,0.9,2.9,1.6,3.9C711.7,385.1,711.1,383.7,710.6,382.4z"/>
	<path class="st0" d="M320.8,233.9c11.9,0.3,19.7-10.4,25.1-21c-13.1,4-25.8,8.8-38.1,14.4C311.1,231.1,315.3,233.8,320.8,233.9z"/>
	<path class="st0" d="M529.8,215.8c-17.2-5.8-35-10.1-53.5-12.7c-1.3,7.6-6.3,16.4-6.6,23.6C467.7,269.2,507.4,234,529.8,215.8z"/>
	<path class="st0" d="M723.3,507.8c-12-6.6-12.6,1.1-18.6,9.3c-8.9,12.1-21.2,20.5-35.2,27.1c-1.2,0.6-2.3,1.1-3.5,1.5l0.6,4.2
		c0,0,15.4,61.2,61.1-37.5c1,1.3,2.1,2.7,3.1,4c0,0,0,0,0-0.1C728.1,513,725.7,509.2,723.3,507.8z"/>
	<path class="st0" d="M590.4,249.9c2.3-0.4,4.8-0.9,7.4-1.3c-10.1-6.5-20.5-12.5-31.4-17.8C562.4,251.7,567.3,254.1,590.4,249.9z"/>
	<path class="st0" d="M620.7,302.9c3.3,3.3,5.8,7.1,7.4,11.2c10.1,2.7,25.3,1.2,41.2-0.8c-11.4-14.3-24.2-27.5-38-39.5
		c-4.8,8.4-13.8,16.1-15.3,24.4L620.7,302.9z"/>
	<path class="st1" d="M731.3,462.5c-6.2-6.7-15.2-10.9-14.9-20.4c0.2-6.8,4.1-11,9.1-14c2.4-1.5,5.1-2.7,7.8-3.8
		c11.6-4.8,25.2-13,10.1-26.3c-8.7-7.7-25.5-3.5-31.2-11.5c-0.8-1.1-1.3-2.4-1.6-3.9c-0.1-0.6-0.2-1.3-0.3-2
		c-0.9-14.3,17.3-18.4,24.4-27.4c6-7.6,7.4-29.5,0.1-37c-10.5-10.9-39.1-6.1-65.6-2.7c-15.9,2-31.1,3.5-41.2,0.8
		c4.8,12,2.3,26.2-7.4,35.9l-23.4,23.4c5,5.9,9.7,11.9,14.2,18.1c5.9-5.1,13.5-8.2,21.9-8.2h33.3c18.4,0,33.3,14.9,33.3,33.3V450
		c0,18.4-14.9,33.3-33.3,33.3c0,0,0,0,0,0h-10.8c5.5,19.8,9,40.5,10,61.6l0.1,0.9c1.1-0.5,2.3-1,3.5-1.5c14-6.6,26.3-15,35.2-27.1
		c6-8.2,6.6-15.9,18.6-9.3c2.5,1.3,4.9,5.2,7.6,8.6c3.7,4.7,8.1,8.7,13.9,4.9c10.7-7-5.7-48.1-11.1-56
		C733,464.4,732.2,463.4,731.3,462.5z"/>
	<path class="st1" d="M112.6,383.3c-13-13-13-34.1,0-47.1l23.6-23.6c13-13,34.1-13,47.1,0l9.2,9.2c11-7.8,22.6-14.8,34.6-21.1
		l-0.7-0.7c-13-13-13-34.1,0-47.1l23.6-23.6c13-13,34.1-13,47.1,0l23.6,23.6c4.6,4.6,7.5,10.2,8.9,16.1c12.1-1.5,24.5-2.3,37.1-2.3
		c0,0,0,0,0,0V250c0-18.4,14.9-33.3,33.3-33.3h33.3c18.4,0,33.3,14.9,33.3,33.3v33.3c0,0.1,0,0.2,0,0.3
		c19.2,6.7,37.6,15.4,54.8,25.6c1.4-2.3,3-4.4,5-6.4l23.6-23.6c13-13,34.1-13,47.1,0l18.8,18.8c1.5-8.2,10.5-15.9,15.3-24.4
		c2-3.5,3.3-7,3-10.9c-1.3-19.1-20.8-17.1-36.5-14.3c-2.6,0.5-5.1,0.9-7.4,1.3c-23.1,4.1-28,1.8-24-19.1c0.2-1.1,0.5-2.3,0.7-3.6
		c3.5-16.1-3.4-27.3-24.3-20.6c-2.5,0.8-7.1,4.4-13,9.1c-22.4,18.2-62.2,53.4-60.1,10.9c0.4-7.2,5.4-15.9,6.6-23.6
		c1-6.1-0.4-11.4-8.3-14.6c-16.8-6.6-26.1,14.2-42.6,6c-16.6-8.3-10.6-26.7-29.3-27.7c-22.3-1.2-35.8,13.6-43.8,31.6
		c-1.7,3.9-3.8,9.2-6.5,14.6c-5.4,10.6-13.1,21.3-25.1,21c-5.5-0.1-9.7-2.8-13-6.7c-6.6-7.8-9.7-20.5-12.3-28.1
		c-6-17.9-7-30.3-30.6-25.7c-25.2,5-23.4,26.7-33,45.2c-11.4,22-19.7,16.3-37.3,9.9c-23.8-8.8-13.5,16.8-30,26.2
		c-17.5,10-30.3-7.9-43,14.7c-5.2,9.4-5.8,19.5-5.4,30.2c0.2,5.1,4.4,14.2,0.4,19.1c-8.5,10.6-21.9-5.2-33.3-6.9
		c-19.4-2.9-26.6,13.6-24.3,30c2,13.9,10.7,24.7,21.6,33.5c9.5,7.7,27.1,18.1,24.2,32.5c-5.8,28.8-58.2-6.4-54.5,28.8
		c1.1,10.6,6.7,24.8,14,32.9c3.8,4.2,9.1,7.4,14.1,10.5c9.3-31.7,24-61.4,43.1-88L112.6,383.3z"/>
	<path class="st2" d="M136.2,312.6l-23.6,23.6c-13,13-13,34.1,0,47.1l8.8,8.8c19.5-27.1,43.5-50.9,71.1-70.3l-9.2-9.2
		C170.3,299.6,149.2,299.6,136.2,312.6z"/>
	<path class="st2" d="M666.7,483.3C666.7,483.3,666.7,483.3,666.7,483.3c18.4,0,33.3-14.9,33.3-33.3v-33.3
		c0-18.4-14.9-33.3-33.3-33.3h-33.3c-8.4,0-16,3.1-21.9,8.2c20,27.6,35.2,58.6,44.4,91.8H666.7z"/>
	<path class="st2" d="M466.7,250c0-18.4-14.9-33.3-33.3-33.3H400c-18.4,0-33.3,14.9-33.3,33.3v16.7c35.1,0,68.7,6,100,16.9
		c0-0.1,0-0.2,0-0.3V250z"/>
	<path class="st3" d="M615.9,298.1l-18.8-18.8c-13-13-34.1-13-47.1,0l-23.6,23.6c-2,2-3.6,4.1-5,6.4c28.8,17.2,54.4,38.9,75.8,64.2
		l23.4-23.4c9.7-9.7,12.2-23.9,7.4-35.9c-1.6-4.1-4.1-7.9-7.4-11.2L615.9,298.1z"/>
	<path class="st3" d="M297.1,229.3c-13-13-34.1-13-47.1,0l-23.6,23.6c-13,13-13,34.1,0,47.1l0.7,0.7c31.3-16.3,65.8-27.3,102.5-31.8
		c-1.4-5.9-4.3-11.5-8.9-16.1L297.1,229.3z"/>
	<path class="st4" d="M666.7,550l-0.6-4.2l-0.1-0.9c-1.1-21.1-4.5-41.7-10-61.6c-9.3-33.2-24.5-64.2-44.4-91.8
		c-4.5-6.2-9.2-12.3-14.2-18.1c-21.4-25.2-47-47-75.8-64.2c-17.2-10.3-35.5-18.9-54.8-25.6c-31.3-10.9-64.9-16.9-100-16.9
		c0,0,0,0,0,0c-12.5,0-24.9,0.8-37.1,2.3c-36.6,4.5-71.2,15.5-102.5,31.8c-12.1,6.3-23.6,13.3-34.6,21.1
		c-27.5,19.4-51.6,43.2-71.1,70.3c-19.1,26.6-33.8,56.2-43.1,88c-6.1,20.9-9.9,42.7-11,65.1h-0.7v27.4c0,15.1,12.8,27.4,28.6,27.4
		h542.9c1.5,0,3-0.2,4.4-0.4c66-4.4,84-54.9,88.9-82.3c-0.2-0.2-0.4-0.5-0.6-0.7c-1.1-1.3-2.1-2.7-3.1-4
		C682.1,611.2,666.7,550,666.7,550z M200,483.4c0,9.2-7.5,16.7-16.7,16.7c-9.2,0-16.7-7.5-16.7-16.7c0-9.2,7.5-16.7,16.7-16.7
		C192.6,466.7,200,474.1,200,483.4C200,483.3,200,483.4,200,483.4z M216.7,450c-9.2,0-16.7-7.5-16.7-16.7c0-9.2,7.5-16.7,16.7-16.7
		c9.2,0,16.7,7.5,16.7,16.7c0,0,0,0,0,0C233.3,442.6,225.9,450,216.7,450z M266.7,483.4c0,9.2-7.5,16.7-16.7,16.7
		c-9.2,0-16.7-7.5-16.7-16.7c0,0,0,0,0,0c0-9.2,7.5-16.7,16.7-16.7C259.2,466.6,266.7,474.1,266.7,483.4
		C266.7,483.3,266.7,483.4,266.7,483.4z"/>
	<path class="st5" d="M183.3,466.7c-9.2,0-16.7,7.5-16.7,16.7c0,9.2,7.5,16.7,16.7,16.7c9.2,0,16.7-7.5,16.7-16.7c0,0,0,0,0,0
		C200,474.1,192.6,466.7,183.3,466.7z"/>
	<path class="st5" d="M233.3,433.3c0-9.2-7.5-16.7-16.7-16.7c-9.2,0-16.7,7.5-16.7,16.7c0,9.2,7.5,16.7,16.7,16.7
		C225.9,450,233.3,442.6,233.3,433.3C233.3,433.3,233.3,433.3,233.3,433.3z"/>
	<path class="st5" d="M250,466.6c-9.2,0-16.7,7.5-16.7,16.7c0,0,0,0,0,0c0,9.2,7.5,16.7,16.7,16.7c9.2,0,16.7-7.5,16.7-16.7
		c0,0,0,0,0,0C266.7,474.1,259.2,466.6,250,466.6z"/>
</g>
</svg>
