<?xml version="1.0" encoding="utf-8"?>
<!-- Generator: Adobe Illustrator 27.6.1, SVG Export Plug-In . SVG Version: 6.00 Build 0)  -->
<svg version="1.1" id="a" xmlns="http://www.w3.org/2000/svg" xmlns:xlink="http://www.w3.org/1999/xlink" x="0px" y="0px"
	 viewBox="0 0 1003.7 378.4" style="enable-background:new 0 0 1003.7 378.4;" xml:space="preserve">
<style type="text/css">
	.st0{fill:none;stroke:#000000;stroke-miterlimit:10;}
</style>
<path class="st0" d="M157.3,187.9c18.2-6.8,38.5-18.1,57.8-8.8c7.6,3.7,8.9,8.7,15.8,2.1c5.5-5.3,8.5-20.4,13.1-27.2
	c10.7-15.8,28.4-28.5,48.3-25.9c13.2,1.7,15.3,4.7,28,0.7c10.2-3.3,17.1-3.1,27.6-1.6c20-21.3,51.8-17.5,59,12.2
	c13.1-16.6,46.2-19.1,53.5,3.8c18.6-31.2,68.1-35.8,87.2-1.9c6.8-23.1,11-47.5,41-40.9c31.2,6.9,18.9,35.9,18.9,59.8
	c6.8-4.9,9.5-12.4,15.6-17.9c7.9-7,19.5-9,29.8-8.7c12.6,0.3,20.2,5.8,31.1,10.4c11.5,4.9,10.2,1.5,18.4-8.2
	c13.1-15.6,28.6-24.9,48.7-14.9c22.6,11.2,13.8,32,7.7,50.8c21.1-13.5,44.8-37.3,70.5-26.2c32.2,14,13.7,44.9,5.3,69.6
	c19.1-1.7,37.8-4.3,53.5,9.2c8.2,7.1,7.4,11.6,18.9,9.3c11-2.2,18.7-5.9,30.4-3.9c32.7,5.6,65.4,59.9,20.4,71.8
	c2,20.8,5.4,41.1-9.6,58.3c-14.6,16.7-39.4,17.2-60,17.9c-9.7,0.3-19.6-0.9-28.5-5.1c-11.6-5.5-14-16.8-23.1-23.3
	c-7.7-5.5-18.7,1-28.8-0.6c-10.5-1.6-25.1-7.3-30.5-17.1c-23.3,4.1-44.6,7.2-49.3-22c-15.7,4.7-27.2-0.2-41.8-4.6
	c-14.3-4.3-26.5,3.4-40.1-1.4c-5.3-1.9-9-6.4-14.7-7.5c-5.6-1.1-11.8,1.4-17.9-0.1c-12.8-3.2-18.8-13.9-29.5-20.2
	c-13.2,15.2-34.6,17.9-46.1-1.6c-20.3,21.6-53,19.3-73.4-0.6c-11.3,19.7-38.6,26.3-59.1,18.7c-13-4.8-10.9-9.1-23.1-3.8
	c-11.3,4.9-22.5,12.7-34.4,4.3c-19.2,17.6-40.7,15.4-63.3,6.5c-2.4,18.1-28.9,30.9-44.6,21.1c-10.5,16.6-25,21.9-45.2,16.6
	c-17.1,31.5-37.3,41.8-72.8,39.4c-38.2-2.6-63.8-20-82.4-53.6C22.9,292.9,9,254.2,1.7,220.4c-3.9-18.2,1.5-25.1,17.5-34
	c20.7-11.6,30.2-0.4,50.5,5.2c-1.7-10.1-4-18.1,3.5-26.5c6.5-7.2,23.7-18.1,33.5-18.2C123.7,146.6,156.3,170.3,157.3,187.9
	L157.3,187.9z M160.1,312.5c-5.8-38.3-19.7-76.9-34.2-112.9c-4.5-11.1-11.2-39.1-24.3-37.2c-12,1.8-22.2,15.6-19.2,25.9
	c5.4,18.3,18.3,36.4,25.8,54.2c6.9,16.5,15.1,35.1,18.3,52.8c2.4,13.1,1.3,28.1-14.9,30.7c-16.4,2.6-26.2-15.6-32-27.9
	c-8.8-18.7-15.6-39.1-22.2-58.6c-3-8.7-6.5-38.9-14.3-44.7C31.8,186.4,13.9,206,14.9,217c1.8,18.9,14.2,41.7,21,59.4
	c11.2,29.3,23.7,63.8,53.2,79.6C118.8,372.1,161.3,347.1,160.1,312.5z M740.1,190.8c3-13.9,20-43.5,9.1-55.4c-3.5-3.8-15.5-7-20-5.5
	c-8.3,2.8-8.6,12.2-10.4,19.7c-5.3,22.4-10.9,44.8-16.4,67.1c-3.4,13.5-15.8,41.9-12.2,55.8c3.1,12.2,9.4,7.4,17.6,9.5
	c8.2,2.2,14,7.4,23.1,7.8c17.6,0.8,29.5-12.5,36.3-27.5C779.6,234.7,776.3,194.3,740.1,190.8L740.1,190.8z M653.1,266.2
	c1.3,8.7,10.9,23.4,21.8,16.9c9.4-5.6,4.1-30.7,5.5-40.9c3.4-26.5,24.6-69.1-4.6-88.1c-10.2-6.6-27.2-10-38.5-4.5
	c-10.7,5.2-20.4,19.8-8.3,28.8c10.8,8.1,13.3-3.5,24.2-2.3c17.3,1.9,11.3,22.4,7.7,33.7c-24.1-21.1-52-9.8-55.7,23.2
	C601.8,261.5,627.1,285.8,653.1,266.2L653.1,266.2z M181.5,233.4c0.1-10.7,10.8-16.4,18.9-9.6c8.2,6.9,10.6,26.4,13.6,36.2
	c3,9.6,6,33.6,13.4,40c7.5,6.6,22.7-0.6,24.3-9.9c1.8-10.4-9-31-12.1-40.9c-3.9-12.6-7.2-25.9-12.7-37.9
	c-7.9-17.2-27.9-31.1-45.4-16.5c-3,2.5-5.3,9.6-8.4,10.9c-3.9,1.6-4.2-2.5-7.6-2.5c-6.7,0-16.3-0.3-19.8,7.1
	c-2.9,6.2,7.3,26.5,9.3,32.8c4.2,13.2,8.5,26.5,12.6,39.7c2.7,8.7,5.1,32.6,13.9,36.6c5.4,2.4,19.5-2.6,22.2-7.9
	c4.1-7.9-6.7-27.4-9.2-35.3C190.1,262,185.8,247.7,181.5,233.4L181.5,233.4z M387.5,168.2c-18.2,0-14.6,8.8-13.7,23.5
	c0.7,11.3,0.9,22.6,2.6,33.9c3.3,21.8,11.7,44.1,36.8,46.2c57,4.8,40-63.7,36.8-98.2c-0.7-7.7,1.3-27.6-6.4-32.7
	c-6.5-4.3-21.9-0.2-24.6,6.7c-3.5,8.8,1.6,26.2,2.6,35.1c1.4,12.5,2.8,25.1,3.9,37.6c0.7,7.8,3.3,27.2-10.4,24.2
	c-12.5-2.8-10.1-25-10.9-34.3C402.8,194.5,409,167.1,387.5,168.2L387.5,168.2z M503.4,131.2c-26.5,0-40.1,25.8-34.8,50.2
	c2.5,11.5,9,19.3,19,25.2c7.6,4.5,23.6,6.5,26,16.5c2.4,9.9-7.6,15.9-16,13c-9.4-3.2-6.8-13.7-14.4-16.5
	c-10.1-3.7-18.2,8.2-17.8,16.7c0.6,10.6,9.8,21,18.8,25.8c19.8,10.6,47.3,1.6,53.6-20.4c7.2-25-4.5-43.3-25.4-55.4
	c-7.8-4.6-23.3-9-17.7-20.9c7-14.9,17.2,0,25.1,2.3c12.5,3.5,19.2-9.7,15.5-20.4C530.9,134.9,514.9,130.5,503.4,131.2L503.4,131.2z
	 M915.1,361.1c25,0.7,38.5-29.4,30-50.7c-1.9-4.8-38.8-44.4-12.6-40.5c8.6,1.3,24.9,36,33.8,9.6c7.4-22-23.7-39.3-41.3-37.1
	c-19.4,2.4-34,25.8-29.8,44.7c2.9,13,13.5,17.9,20.8,27.5c5.2,6.8,7.7,20.7-5.7,17.9c-12.7-2.7-4.7-13.8-9.7-20.3
	c-6-7.7-20.3-3.2-23.3,3.5C866.4,339.6,894.3,360.6,915.1,361.1L915.1,361.1z M308.1,158.7c1.4-23.3-30.5-18.1-43-8.8
	c-16.2,12.2-23.3,36.6-23.4,55.9c-0.1,35.6,28.6,96.4,73.9,74.9c6.4-3,16.6-11.5,13.6-20.4c-3.9-11.2-7.9-0.8-16.9-2
	c-14-1.9-29-20.7-36.4-31.6c-6.8-10.1-0.8-15.5,0.4-25.5c0.8-6.5-2.2-11.9-0.1-18.5c2.8-8.9,8.5-8.1,14.4-12.5
	C298.3,164.5,297,160.1,308.1,158.7L308.1,158.7z M836.5,281c10.1,3.7,22.1,10.3,32.8,11.9c11.1,1.7,11.9-3,15.1-14.3
	c4.5-15.8,8.4-35.6-7.5-45.9c-36.1-23.3-58.6,14.8-66.9,45c-4.5,16.4-3.9,36.6,11.9,46.8c13.2,8.4,32.7,7.4,43.3-4.3
	c9.5-10.5,7.6-25.4-9.2-22.6c-6.3,1.1-12.9,11-19.8,4.8C830.5,297.3,835.2,287,836.5,281L836.5,281z M559.3,190.9
	c0,16.4-15.3,64.1,2.6,72.8c23.5,11.4,24.5-52,26.7-65.9c6.2,0.9,20.2,6.2,25.5,1.5c3.3-3,4.7-18.9,2.6-22.2
	c-4.7-7.5-18.3-1.3-22.8-7.1c-3.4-4.3,1.5-20.7,2.2-25.9c1.7-13.4,2.2-40.9-21.3-31.3c-14.3,5.9-10.7,39.3-12.3,52.4
	c-11.7,0-20.8-5-23,9C537.2,189.4,547.5,189.1,559.3,190.9L559.3,190.9z M393.4,144.7c0-14.2-9.4-21.2-22.9-16.9
	c-12.8,4-14.7,15.4-22.4,24.6c-7.6-7.1-12.1-21.1-25.5-10.4c-10.6,8.4,0.5,34.4,3.1,46.3c3.7,17.2,7.3,34.4,10.9,51.6
	c1.5,7.3,2.8,14.9,4.7,22c3,10.9,1.9,11.1,12.3,10.3c20.4-1.5,16-14.3,13.1-29.2c-3.4-17-9-35.2-9.3-52.6c-0.2-11.5,2-23.7,11.8-31
	C376.6,153.7,393.3,156.7,393.4,144.7L393.4,144.7z M835.7,170.5c0-10.7-17-19-26.3-14.5c-10.7,5.1-13.7,34.4-16.8,45.1
	c-5.1,17.9-10.3,35.8-15.5,53.7c-4,13.5-14.2,32.9-13.3,46.5c0.7,9.7,8.4,19.1,18.9,14.1c9.8-4.6,13.8-31.6,17-41.2
	C811.2,239.7,826.5,205.6,835.7,170.5L835.7,170.5z M688.8,64.6c23.3,12.7,7.5,41.8-16.7,31.5c-2.4,4.2-4.8,8.6-7.4,13.2
	C611.4,84.1,559,67.6,499.4,67.7c-59.5,0.1-109.3,18.2-162.9,41.5c-2.5-4.4-5-8.7-7.6-13.4c-21.9,13.6-39.5-17.6-16.6-31.3
	c-2.3-4.5-4.5-9-7.2-14.2c68.3-33.3,139-53.8,215.7-49.3c34.9,2.1,69.4,7.5,102.7,18.2c16.2,5.2,32.1,11.5,47.6,18.7
	C688.1,46,698.1,46.6,688.8,64.6L688.8,64.6z M389.5,72.7c1.4-7.3-5.2-4-7-8c-2.1-4.8-1.6-11.9-2-17.3c4.8,5.4,12.7,23.5,21.1,21.6
	V40.5c3.5,4.7,6.7,9.9,8.1,15.3c0.5,1.9-3.4,5.7-1.6,7.6c4.2,4.4,18.3,2.4,16.1-6c-11.5-7.4-16.5-20.3-12.5-33.2
	c-7.1,1.6-12.3,2.9-17.7,4.1V50c-11-14.9-10.8-18.1-29.2-12.5c0.6,2,1.2,3.9,1.8,5.9c9.8-5,5.4,21.3,6.4,25
	C376.3,79.8,377.5,77.2,389.5,72.7L389.5,72.7z M624.2,72.1c-2.4-5.7-4.5-10.6-6.7-15.8c8.9-3.7,16.8-12.5,8.5-21.1
	c-5.8-6.2-22.7-8.6-30.7-11.4c1.8,10,2,21.3-2.5,30.8c-2.2,4.8-6.3,3.4-6.6,10c16.6,5.7,14,2.4,15.8-11.5
	c12.7,5.5,5.8,19.3,19.9,23.3C623,74.5,623.8,72.8,624.2,72.1L624.2,72.1z M544,56.3c-2.2-9.9-8.7-17.1-14.5-25.3
	c6.4-3.8,11.5-7,16.9-10.2v-5c-6-0.5-11.9-0.9-18.6-1.4c0.6,3,1.1,5.8,1.7,9c-3,2.2-6.5,4.7-10.1,7.2c-3.1-6-2.4-8,3-11.2v-5
	c-2.8-0.2-14.4-2.9-16.7,0.1c-3.2,4.2,3,6.1,3.4,8.7c1,5.4,0.9,13.6,0,18.9c-1,5.5-5.6,6-4.6,12.4h18.8c-3.6-6-9.7-21.9,2.2-14.2
	C539.4,48.8,524.1,56.3,544,56.3L544,56.3z M359.8,54.9c-5.8-12.2-5.2-14.2-17.2-8c-9.1,4.7-25,13.8-8.6,23.8
	c5.1,3.2,23.2-3.1,23.8,4.5c1,13.6-15.9,1.4-19,3.1c-10.3,5.6,8.4,11.5,13,10.8c10.3-1.4,22.3-13,13.2-23.2
	c-4.8-5.5-26.6,2.2-27.7-5.5c-1.5-10.7,13.4-7.2,17.1-3C356,56.6,357.7,55.9,359.8,54.9L359.8,54.9z M553.2,21.4
	c0.3-0.1,0.7-0.1,1-0.2c2.2,7.1,2.7,15.8,0.2,23.1c-1,3-6.6,9.2-5.5,12c1.2,3.1,23.8,7.9,26.8,6.6c5.8-2.6,5.2-7.6,6.1-13.4
	c-1.9-0.5-3.6-1-4.5-1.2c-3.8,3.4-20.9,8-14.8-3.1c3.7-6.7,12.4,3.8,12.8-7.9c-19.4-3.1-5.4-16.4,6.8-1C601,19,565.2,18.8,554.9,17
	C554.4,18.4,553.8,19.9,553.2,21.4L553.2,21.4z M655.4,76.1c-6,10.7-17.7,0.7-14.8-8.9c-5.9-0.3-6.4-4.3-8.3,3.6
	c-1.1,4.3,1.4,8.1,4.1,11.2c6.5,7.4,22.1,10,26.4-0.6c4.3-10.7-17.2-21.4-13.7-27.1c5.3-8.7,17,3.5,14.2,11.3
	c8.5,0,8.2-3.8,11.7-11.5c-8.7-4-24-16.9-32.5-6.5C633.5,58.3,648.9,69,655.4,76.1L655.4,76.1z M459.8,14.7
	c-3.4,0.4-13.9-0.2-16.2,3.5c-2.5,3.9,3.3,4.7,3.7,7.1c0.9,6.3,8.3,28.1-3.9,26.8c-11-1.1-7-19.5-9.3-26.1c-0.7-2.1,3.4-3.5,0.7-6.2
	c-2.5-2.5-12.7,1.8-15.5,2.5c5.9,12.5,9.8,48.7,32.3,35.9C465.1,50.5,454.6,28,459.8,14.7L459.8,14.7z M498.4,12.9
	c-8,0-21.1-3.7-27.9,2.3c-6.7,5.9-6,21.9-3.4,29.5c6.2,18.2,34.8,14.6,32-6.5h-7.7c-1.1,13-11,12-15.9,2.5
	c-8.4-16.3,5.7-26,17.2-13.7c-0.3,0.4-0.6,0.8-1,1.1h6.5L498.4,12.9L498.4,12.9z M646.5,33.6c-9.7-5.3-10.1-5.1-12,1.7
	c6.4,2.5,0.6,6.4,0.9,9.6C640.7,45.4,642.6,43.5,646.5,33.6z M320.2,76.8c-1,0.5-2.1,1-3.1,1.4C311.1,87.1,323,85.9,320.2,76.8z
	 M688.2,81.8c-4.7-2.8-3.7-3.6-8.8,0.1C683.2,86.1,683.4,84.9,688.2,81.8z M745.5,229.7c0-7.2-3.8-13.1-11.8-9.3
	c-6.3,3.1-9.1,18.6-10.2,25c-1.2,7.2-1.2,20.2,10.6,15.7C742.6,257.9,745,237,745.5,229.7z M651.5,236c1.3-16.2-22-14.8-21.4,1.9
	C630.8,255.2,651.5,252.7,651.5,236z M845.2,261.3c6.4,2.5,22.1,11.7,18.3-2.9C860.1,245.2,849.8,254.9,845.2,261.3z M317,78.3
	c-5.9,8.8,5.9,7.6,3.1-1.4C319.1,77.3,318.1,77.8,317,78.3z M679.4,81.9c3.8,4.2,4,2.9,8.8-0.1C683.5,79,684.5,78.2,679.4,81.9z
	 M733.8,220.4c-6.3,3.1-9.1,18.6-10.2,25c-1.2,7.2-1.2,20.2,10.6,15.7c8.3-3.2,10.7-24.1,11.3-31.4
	C745.5,222.5,741.8,216.6,733.8,220.4L733.8,220.4z"/>
</svg>
