<?xml version="1.0" encoding="UTF-8"?><svg id="Layer_1" xmlns="http://www.w3.org/2000/svg" viewBox="0 0 543.71 207.45"><path d="m535.57,152.63c.05-2.38,2.28-4.16,5.19-4.15,1.31,0,3.02,2.43,2.95,4.18-.1,2.37-2.35,4.52-4.6,4.39-1.49-.08-3.57-2.69-3.54-4.43h0Z" fill="#fafafa"/><path d="m235.21,20.2c-.05-1.43.17-2.88.84-4.39.19-.44.32-.96.28-1.44.03.47-.09.98-.28,1.4-.67,1.52-.89,2.99-.84,4.43Z" fill="none"/><path d="m242.48,17.22c.01.13.03.26.03.38,0,0,0-.01,0-.02,0-.12-.02-.24-.04-.37Z" fill="none"/><path d="m228.75,17.89c.6.78,1.61,1.39,1.87,2.25.6,2.01.68,4.18,1.28,6.19.81,2.73.84,5.9,3.5,7.75,2.84,1.98,9.55,1.12,11.84-1.58.75-.89,1.32-2.24,1.32-3.38,0,0,0-.02,0-.03,0,1.14-.57,2.49-1.32,3.37-2.28,2.71-9,3.56-11.84,1.58-2.66-1.85-2.69-5.02-3.5-7.75-.59-2.01-.68-4.18-1.28-6.19-.25-.86-1.27-1.47-1.87-2.25-.47-.61-1.19-1.32-1.17-1.94,0,0,0,0,0,.01-.04.63.69,1.35,1.17,1.97Z" fill="none"/><path d="m242.19,19.07s0,.02,0,.03c.64,2.87,1.45,5.71,2.06,8.58.07.32.1.6.1.85,0-.26-.03-.56-.1-.89-.61-2.88-1.42-5.71-2.06-8.57Z" fill="none"/><path d="m207.15,27.92s0,0,0,0c2.45,3.81,4.87,7.13,6.77,10.73.28.53.56.92.84,1.19-.28-.27-.56-.65-.83-1.18-1.9-3.6-4.33-6.92-6.78-10.74Z" fill="none"/><path d="m210.83,39.36c-.25-.19-.59-.34-1.06-.45-.77-.17-1.81-.66-2.36-1.22.55.56,1.6,1.05,2.37,1.23.46.11.81.26,1.05.44Z" fill="none"/><path d="m202.53,41.05c1.1-1.64,1.19-3.06.68-4.94-.67-2.44-1.06-5.02-1.08-7.55-.01-1.16-.26-1.87-.77-2.25.5.38.75,1.09.76,2.24.02,2.53.42,5.11,1.08,7.55.51,1.88.43,3.31-.68,4.94-.56.83-.64,1.78.12,2.4-.75-.62-.67-1.56-.11-2.39Z" fill="none"/><path d="m208.43,22.46c1.19,1.54,2.34,3.16,3.6,4.96-1.26-1.81-2.41-3.42-3.6-4.96Z" fill="none"/><path d="m266.58,23.38h0c-.04.84-.11,1.46-.11,2.08,0,1.1-.25,1.9-.78,2.44.54-.54.8-1.35.79-2.45,0-.62.06-1.24.11-2.07Z" fill="none"/><path d="m239.52,12.75s-.01.02-.02.02c.84.89,1.77,1.72,2.47,2.71.2.28.32.63.4,1-.08-.38-.2-.75-.4-1.04-.7-.98-1.62-1.8-2.45-2.69Z" fill="none"/><path d="m260.85,13.54c-1.34.07-2.25.4-2.81,1.15.56-.74,1.47-1.07,2.8-1.14,4.41-.23,5.38.46,5.84,4.24h3.58s-3.57-.01-3.57-.01c-.46-3.78-1.43-4.47-5.84-4.24Z" fill="none"/><path d="m276.18,15.64c.08,3.24.12,6.49.02,9.73-.03.9-.45,2.45-.95,2.56-2.55.58-1.55,2.33-1.66,3.9h.03c.11-1.58-.89-3.32,1.66-3.9.5-.11.92-1.66.95-2.56.1-3.24.06-6.49-.02-9.73-.01-.63-.35-1.3-.68-1.87-.58-1-1.27-1.93-2.27-3.43h-.03c1,1.5,1.69,2.44,2.27,3.43.33.57.67,1.24.68,1.87Z" fill="none"/><path d="m263.49,33c3.11-.34,5.35-1.15,6.49-3.02-1.15,1.87-3.39,2.68-6.48,3.01-6.35.68-10.53-2.94-10.56-8.67-.01-2.53,0-5.05,0-7.58,0-2.68,1-4.81,2.82-6.1-1.82,1.29-2.83,3.42-2.83,6.11,0,2.53-.01,5.05,0,7.58.03,5.73,4.21,9.36,10.56,8.67Z" fill="none"/><path d="m246.89,17.01c-.09-1.14.23-2.25,1.59-3.29,0,0,0-.02-.01-.03-1.37,1.05-1.68,2.17-1.58,3.32Z" fill="none"/><path d="m63.62,146.52c-5.87-14.33-12.54-28.33-18.96-42.43-1.53-3.35-1.77-4.52.51-6.57-2.32,2.06-2.07,3.23-.53,6.59,6.43,14.1,13.1,28.1,18.96,42.43,3.02,7.38,6.4,14.85,5.85,23.33-.13,1.97-.96,3.82-2.23,5.36,1.27-1.54,2.12-3.4,2.25-5.38.54-8.47-2.83-15.95-5.85-23.33Z" fill="none"/><path d="m172.17,48.68c.21-.1.41-.22.61-.36-.19.14-.39.26-.6.35-.22.1-1.43-1.03-1.42-1.58,0-.16.05-.32.14-.49-.09.17-.15.34-.15.5,0,.56,1.2,1.69,1.42,1.58Z" fill="none"/><path d="m174.41,46.88h0c-.12.1-.23.21-.35.32.12-.11.23-.22.35-.32Z" fill="none"/><path d="m287.29,13.76c-.36-.99-.71-1.99-1.18-3.3-.01,0-.02,0-.03,0,.47,1.31.82,2.31,1.18,3.3.87,2.39-1.57,2.5-2.59,3.28-.63.49-1.46,1.43-2.43,1.46.99-.02,1.82-.97,2.47-1.46,1.02-.78,3.46-.89,2.59-3.28Z" fill="none"/><path d="m125.71,123.46c-1.28-3.9-2.99-7.74-5.07-11.27-2.9-4.96-7.88-7.3-12.75-7.36,4.87.07,9.84,2.41,12.74,7.36,2.07,3.54,3.78,7.38,5.07,11.27,3.69,11.2,7.07,22.51,10.56,33.78,1.5,4.86.92,6.01-3.79,7.69-1.19.42-2.37.87-3.56,1.28-1.26.43-2.27.65-3.1.63.83.02,1.84-.2,3.11-.63,1.19-.41,2.37-.86,3.56-1.28,4.71-1.68,5.29-2.83,3.79-7.69-3.49-11.27-6.88-22.57-10.56-33.78Z" fill="none"/><path d="m172.42,44.67c-.21.28-.42.54-.61.77.2-.23.4-.48.61-.76,0,0,0,0,0,0Z" fill="none"/><path d="m58.87,198.68c-7.23-.25-13.1-4.14-18.24-9.02-7.87-7.48-13.17-16.7-16.93-26.71-5.16-13.74-9.8-27.67-14.62-41.54-.47-1.35-.72-2.79-.96-4.21-.27-1.58.14-2.85,1.15-3.82-1.03.96-1.44,2.24-1.17,3.83.24,1.42.49,2.86.96,4.21,4.82,13.86,9.46,27.8,14.62,41.54,3.76,10.01,9.06,19.23,16.93,26.71,5.14,4.88,11.01,8.77,18.24,9.02,7.39.25,13.79-2.13,19.01-7.26-5.22,5.12-11.61,7.49-18.99,7.24Z" fill="none"/><path d="m99.24,127.67c-.07,1.93.28,3.95.85,5.8,3.38,10.92,6.86,21.82,10.35,32.71,1.59,4.94.92,6.41-3.94,8.12-1.1.39-2.2.79-3.31,1.18-1.23.43-2.22.66-3.04.66.83,0,1.82-.22,3.05-.66,1.1-.39,2.2-.79,3.31-1.18,4.86-1.72,5.53-3.18,3.94-8.12-3.49-10.89-6.97-21.78-10.35-32.71-.57-1.85-.92-3.88-.85-5.8.09-2.62,1.63-4.45,4.2-5.35.62-.22,1.2-.3,1.74-.29-.54-.02-1.12.07-1.75.29-2.57.9-4.1,2.73-4.2,5.35Z" fill="none"/><path d="m192.53,33.74c-2.95-3.07-5.4-3.49-8.3-1.23-.81.63-1.59,2.14-1.37,2.98.01.04.04.09.06.13-.01-.04-.04-.07-.05-.11-.22-.84.57-2.35,1.37-2.98,2.9-2.26,5.35-1.83,8.3,1.23.79-.44,1.63-.9,2.48-1.37-1.08-2.39-2.08-4.62-3.21-7.13,0,0,0,0,0,0,1.13,2.5,2.12,4.73,3.2,7.11-.85.47-1.69.93-2.48,1.37Z" fill="none"/><path d="m221.56,35.15c1.55-1.34,1.17-2.62.42-4.07-1.16-2.24-2.31-4.49-3.46-6.74,0,0,0,0,0,0,1.15,2.25,2.3,4.49,3.45,6.73.75,1.45,1.13,2.73-.42,4.07-.44.38-.34,1.77-.04,2.51.02.06.06.11.11.17-.05-.05-.08-.1-.1-.16-.3-.75-.41-2.13.04-2.51Z" fill="none"/><path d="m213.8,23.8c.05-1.87.17-3.75.26-5.87,2.73-.63,5.5-1.27,8.18-1.89,0,0,0,0,0-.01-2.68.62-5.46,1.26-8.18,1.89-.1,2.13-.22,4-.26,5.87-.04,1.81,0,3.62,0,6.14,0,0,0,0,0,.01,0-2.52-.03-4.33,0-6.14Z" fill="none"/><path d="m229.87,33.08s0,0,0-.01c-1.01.16-1.76-.07-2.35-.57.59.5,1.34.74,2.36.58Z" fill="none"/><path d="m199.07,26.03c-.32-.95-.63-1.83-1.02-2.96,2.54-.85,4.95-1.8,7.45-2.39.63-.15,1.65.37,2.26.95-.6-.58-1.63-1.1-2.27-.96-2.5.58-4.91,1.54-7.45,2.39.39,1.13.69,2.03,1.02,2.97,0,0,0,0,0,0Z" fill="none"/><path d="m198.93,45.68c-1.31,3.3-9.16,6.96-13.26,4.6-1.55-.89-2.68-2.5-4.11-3.88,0,0,0,0,0,0,1.42,1.39,2.57,3,4.12,3.89,4.1,2.36,11.95-1.3,13.26-4.6,1.03-2.6.65-5.65-1.04-7.43,1.67,1.78,2.05,4.82,1.03,7.41Z" fill="none"/><path d="m192.5,41.26c-2.84-.04-5.68.33-8.52.4-2.54.06-4.47-1.24-5.65-3.73,1.19,2.5,3.11,3.82,5.66,3.75,2.84-.07,5.68-.44,8.52-.4.57,0,1.4.78,1.76,1.48-.36-.7-1.19-1.49-1.77-1.5Z" fill="none"/><path d="m365.93,31.94s0,0,0,0c-.47,1-1.01,1.97-1.45,2.97.44-1,.98-1.97,1.45-2.97Z" fill="none"/><path d="m345.98,47.73c2.72,1.99,5.92,3.43,9.25,2.5,1.66-.46,3.43-2.3,4.11-3.94.32-.77.59-1.7.55-2.65.04.95-.23,1.88-.55,2.64-.68,1.64-2.46,3.48-4.11,3.94-3.32.93-6.52-.51-9.25-2.5-2.86-2.09-3.68-4.48-2.76-8.3-.93,3.83-.1,6.22,2.76,8.31Z" fill="none"/><path d="m151.61,110.43h0c-1.51,1.56-2.46,3.34-2.97,5.17.51-1.83,1.47-3.61,2.98-5.17Z" fill="none"/><path d="m344.43,26.74s0,.01,0,.02c2.72.45,4.68-1.6,5.87-6.1,0,0,0,0-.01,0-1.19,4.48-3.14,6.53-5.85,6.09Z" fill="none"/><path d="m349.13,37.02c-2.36-2.55-2.92-4.29-1.87-6.68-1.06,2.4-.49,4.14,1.87,6.69,2.08,2.25,4.18,4.47,6.23,6.67,0,0,0,0,0,0-2.05-2.2-4.15-4.42-6.23-6.67Z" fill="none"/><path d="m343.98,21.55s0,0,0,.01c.81.33,1.27.71,1.51,1.11-.23-.41-.7-.79-1.5-1.12Z" fill="none"/><path d="m359.81,37.6s0,0,0,0c2.31,1.66,3.49.65,4.27-1.68.11-.32.23-.64.37-.95-.13.31-.26.62-.37.94-.78,2.33-1.96,3.34-4.27,1.68Z" fill="none"/><path d="m354.26,30.9c-.7.03-1.88.35-1.97.75-.1.42-.13.94-.08,1.42-.05-.49-.02-1,.08-1.41.09-.39,1.27-.72,1.97-.75,3.86-.14,5.78,1.33,5.82,4.35-.04-3.03-1.96-4.49-5.82-4.36Z" fill="none"/><path d="m347.12,39.14s0,0,0,0c-.21.94-.29,1.79-.24,2.55-.04-.76.04-1.61.25-2.55Z" fill="none"/><path d="m379.45,45.14c-.69-2.5-2.73-4.95-6.23-7.56,0,0,0,0,0,.01,3.49,2.6,5.54,5.05,6.24,7.55Z" fill="none"/><path d="m368.4,47.12c0-.65.82-1.31,1.63-2.45h0c-.81,1.14-1.63,1.8-1.63,2.45,0,.01,0,.03,0,.04,0-.01,0-.03,0-.04Z" fill="none"/><path d="m376.98,30.2s0-.01,0-.02c-33.14-18.16-68.24-27.1-105.71-27.14-37.49-.04-72.53,9.02-105.45,27.09,0,0,0,.01,0,.02C198.75,12.08,233.79,3.02,271.28,3.07c37.47.04,72.55,8.98,105.7,27.14Z" fill="none"/><path d="m369.83,48.69c-.11.05-.47-.2-.8-.54.33.34.69.59.8.54Z" fill="none"/><path d="m169.68,37.71v-.02c-4.34,2.65-6.74,5.9-6.74,9.1,0-3.2,2.41-6.45,6.74-9.09Z" fill="none"/><path d="m333.44,29.23c2.26.08,3.11-.97,2.89-3.11h0c0-.57-.15-1.09-.43-1.56.27.46.42.98.42,1.53h0c.23,2.15-.62,3.21-2.88,3.13-3.02-.1-5.91-1.5-5.74-3.08,0,0,0,0,0,0-.18,1.58,2.71,2.98,5.74,3.09Z" fill="none"/><path d="m307.27,16.89c-.89.39-1.49,2.04-1.69,3.21-.06.36.31.95.77,1.4-.46-.45-.82-1.02-.76-1.39.19-1.17.79-2.82,1.69-3.21,2.01-.87,4.8.57,6.18,2.6-1.38-2.03-4.18-3.48-6.19-2.61Z" fill="none"/><path d="m317.14,21.56c-.13.38-1.23.64-1.84.57-.21-.02-.46-.19-.68-.41.22.23.47.4.69.42.61.07,1.71-.19,1.84-.57.59-1.74,1.06-3.55,1.25-5.37.03-.23-.22-.58-.56-.89.33.31.57.65.55.88-.2,1.82-.66,3.63-1.25,5.37Z" fill="none"/><path d="m335.73,43.57s0,0,0,0c-.05-.01-.09-.03-.13-.05.04.01.09.03.13.05Z" fill="none"/><path d="m307.05,26.08c-.92.08-2.46.85-2.51,1.42-.06.73.05,1.66.35,2.42-.29-.76-.4-1.68-.34-2.41.05-.57,1.59-1.34,2.51-1.42,1.42-.12,2.88.27,4.25.44.21-1.38.36-2.41.54-3.59h-.01c-.18,1.17-.33,2.19-.54,3.58-1.37-.17-2.83-.56-4.25-.44Z" fill="none"/><path d="m295.62,33.04c-1.27,0-2.15,0-2.89,0,.74,0,1.62,0,2.89,0Z" fill="none"/><path d="m299.99,14.63s0,0,0,0c.7.54,1.29,1.14,1.52,1.75-.23-.61-.81-1.21-1.52-1.75Z" fill="none"/><path d="m305.6,31.05s-.02-.03-.04-.04c.01.01.02.03.03.04,0,0,0,0,0,0Z" fill="none"/><path d="m311.44,36.39c-4.06-1.07-8.29-1.51-12.42-2.35-.24-.05-.52-.2-.78-.39.27.19.56.35.79.4,4.13.83,8.36,1.28,12.42,2.35,2.34.62,2.77-.58,3.19-2.11.42-1.58.64-3.21.94-4.8,0,0,0,0-.01,0-.3,1.6-.52,3.23-.94,4.79-.42,1.54-.85,2.73-3.19,2.11Z" fill="none"/><path d="m336.67,19.86c-.93-.31-1.9-.53-2.81-.83-1.03-.34-2.08-.64-3.16-.92,1.09.29,2.15.59,3.19.93.9.3,1.86.52,2.78.82Z" fill="none"/><path d="m327.11,36.68s0,0,0-.01c-.23,0-.47.03-.7.04,0,0,0,0,0,.01.23,0,.47-.03.69-.04Z" fill="none"/><path d="m330.96,34.69c-.05-.26-.06-.61-.23-.76-1.21-1.01-2.42-2.03-3.73-2.89,0,0,0,0-.01,0,1.3.86,2.51,1.87,3.71,2.88.17.14.18.5.23.76.5,2.4,1,4.81,1.57,7.55.39.17.88.41,1.44.65-.54-.24-1.02-.48-1.41-.64-.57-2.74-1.07-5.15-1.57-7.55Z" fill="none"/><path d="m287.49,29.32c-.46-2.54-2.22-4.84-3.38-7.22,0,0-.02,0-.02.01,1.16,2.38,2.92,4.67,3.37,7.21.63,3.46.32,3.74,3.39,3.73-3.04.01-2.74-.27-3.36-3.73Z" fill="none"/><path d="m318.01,37.82s.02,0,.03,0c-.31-1.96-.05-3.49,2.07-4.24.6-.21,1.33-.83,1.48-1.4.91-3.47,1.69-6.97,2.47-10.47.09-.38-.03-.82-.12-1.22-.32-1.35-.68-2.69-1.1-4.34h-.02c.46.11.9.22,1.33.33-.45-.11-.9-.22-1.36-.34h.02c.43,1.67.78,3.01,1.1,4.35.1.4.21.84.12,1.22-.78,3.5-1.56,7-2.47,10.47-.15.57-.88,1.19-1.48,1.4-2.13.75-2.38,2.27-2.07,4.24Z" fill="none"/><path d="m92.18,114.17c.17.27.54.42,1.05.8h.01c-.51-.38-.89-.52-1.05-.8-1.08-1.78-2.39-2.47-3.89-2.41,1.49-.05,2.8.63,3.88,2.41Z" fill="none"/><path d="m439.83,150.46c1.76-6.43,4.4-12.48,8.21-18.08,8.22-12.09,26.96-7.63,31.85.75.91,1.55,1.3,3.51,1.53,5.34.11.86.17,1.72.18,2.56-.01-.85-.07-1.71-.18-2.57-.23-1.82-.62-3.78-1.53-5.34-4.89-8.39-23.64-12.84-31.85-.75-3.81,5.61-6.45,11.65-8.21,18.08-1.08,3.95-1.96,8.05-2.15,12.12-.04.72-.04,1.42-.03,2.09-.02-.67,0-1.36.03-2.08.2-4.07,1.07-8.17,2.15-12.12Z" fill="none"/><path d="m373.91,147.37c1.62-6.93,3.41-13.82,5.11-20.73,1.56-6.36,3.06-12.74,4.62-19.1,1.8-7.33,3.63-14.65,5.45-21.97.69-2.78,1.28-5.58,2.07-8.33.85-2.99,2.78-4.63,5.37-4.75-2.59.12-4.51,1.75-5.38,4.75-.79,2.75-1.38,5.55-2.07,8.33-1.81,7.32-3.65,14.64-5.45,21.97-1.56,6.36-3.06,12.74-4.62,19.1-1.69,6.91-3.48,13.8-5.11,20.73-1,4.27,1.99,8.67,6.02,8.51-4.03.15-7.01-4.26-6.01-8.51Z" fill="none"/><path d="m370.82,123.92c.91-4.99,2.56-9.86,3.21-14.87.53-4.08.73-8.43-.1-12.41-.94-4.55-3.36-7.73-6.6-9.97,3.24,2.24,5.65,5.42,6.59,9.96.83,3.99.63,8.33.1,12.41-.65,5.01-2.3,9.88-3.21,14.87-1.18,6.5-2.22,13.03-2.99,19.59-.31,2.62.38,5.34.44,8.02.09,3.74-2.82,5.91-6.44,4.83-1.59-.47-2.99-1.13-4.15-2.03,1.16.91,2.57,1.57,4.16,2.04,3.62,1.07,6.53-1.1,6.44-4.83-.06-2.68-.75-5.4-.44-8.02.77-6.56,1.81-13.09,2.99-19.59Z" fill="none"/><path d="m403.99,127.19s0,0,0,0c0-.34-.03-.69,0-1.03-.03.35,0,.69,0,1.04Z" fill="none"/><path d="m341.71,131.19c.15-4.26,2.53-7.22,5.74-7.14,0,0,0,0,0,0-3.21-.08-5.6,2.89-5.75,7.14-.14,3.95,2.16,6.79,5.6,6.92,0,0,0,0,0,0-3.44-.14-5.74-2.98-5.6-6.92Z" fill="none"/><path d="m414.06,165.25c1.84-6.98,3.8-13.93,5.81-20.87,5-17.25,10.06-34.48,15.1-51.72.2-.69.38-1.39.64-2.06,1-2.56,2.53-4.4,5.67-3.9.07-.21.14-.42.21-.63v-.02c2.97,1.15,6.09,2.05,8.88,3.54.97.52,1.65,1.31,2.07,2.27-.41-.97-1.1-1.77-2.08-2.29-2.79-1.5-5.9-2.39-8.88-3.54v.02c-.07.21-.14.42-.21.63-3.14-.5-4.67,1.34-5.67,3.9-.26.67-.44,1.37-.64,2.06-5.04,17.24-10.1,34.47-15.1,51.72-2.01,6.94-3.97,13.89-5.81,20.87-.41,1.54-.4,3.13.19,4.49-.59-1.35-.59-2.93-.18-4.47Z" fill="none"/><path d="m401.19,121.5c-2.3-.7-4.03.45-4.89,2.36-2.3,5.09-4.32,10.3-4.25,16.03,0,0,0,0,0,0-.07-5.73,1.95-10.95,4.25-16.02.86-1.91,2.59-3.07,4.89-2.36,1.97.6,2.82,1.96,2.84,3.79-.02-1.84-.86-3.2-2.84-3.8Z" fill="none"/><path d="m382,155.62c2.78-.17,4.65,1.02,7.05,2.3,1.9,1.01,3.86,1.61,5.82,1.86-1.96-.25-3.91-.85-5.81-1.86-2.4-1.28-4.27-2.47-7.06-2.3Z" fill="none"/><path d="m296.58,105.07c-1.98-.34-3.09-.93-3.65-2.09.55,1.17,1.67,1.76,3.66,2.12,2.32.41,4.67.68,7.19,1.04,0,0,0-.02,0-.03-2.53-.36-4.88-.63-7.21-1.04Z" fill="none"/><path d="m350.9,149.25c-5.59,3.52-13.14,2.21-17.86-2.61,4.72,4.83,12.28,6.14,17.87,2.62.93-.59,1.73-1.34,3.05-2.39,0,0,0-.01,0-.02-1.31,1.05-2.13,1.8-3.06,2.39Z" fill="none"/><path d="m324.34,72.73c-1.06,6.88-1.77,13.81-2.61,20.72-.04.34.06.7.12,1.26h0c-.06-.54-.16-.9-.12-1.23.84-6.91,1.56-13.84,2.61-20.72.17-1.1.15-2.16-.03-3.13.18.97.19,2.02.02,3.1Z" fill="none"/><path d="m280.08,104.52c7.33,3.94,12.95,10.93,12.47,20.69-.2,4-.3,7.9-2.06,11.59-2.01,4.22-5.16,7.1-9.63,8.5-5.6,1.76-11.15,2.3-16.77-.09-.74-.32-1.45-.66-2.13-1.04.68.38,1.4.73,2.15,1.05,5.62,2.38,11.17,1.84,16.77.09,4.47-1.4,7.62-4.29,9.63-8.5,1.76-3.69,1.87-7.59,2.06-11.59.48-9.75-5.15-16.76-12.49-20.7Z" fill="none"/><path d="m348.62,99.75c-2.11,2.17-4.44,1.57-6.79.33-.82-.43-1.56-.96-2.2-1.56.64.6,1.38,1.13,2.21,1.57,2.36,1.24,4.68,1.84,6.79-.33,2.24-2.3,4.82-2.06,7.45-1.09.93.34,1.76.8,2.43,1.39-.67-.59-1.51-1.06-2.44-1.4-2.63-.97-5.2-1.21-7.45,1.09Z" fill="none"/><path d="m358.6,116.37s0,0,0,0c-1.06-1.63-2.35-2.97-3.8-4.02,1.45,1.05,2.74,2.39,3.8,4.02Z" fill="none"/><path d="m333.84,108.38c.5-2,.9-4.03,1.29-6.06.26-1.38.28-2.45,0-3.3.27.84.25,1.91-.01,3.27-.39,2.03-.79,4.06-1.29,6.06-.71,2.85-1.98,3.59-4.87,3.06-3.15-.57-6.31-1.1-9.66-1.68-1.03,6.22-2.05,12.11-2.98,18-.67,4.24-1.15,8.51-1.85,12.75-.65,3.98-3.91,6.31-7.53,5.55-3.65-.77-5.97-2.95-6.71-5.81.73,2.88,3.05,5.07,6.72,5.84,3.62.76,6.88-1.57,7.53-5.55.69-4.24,1.18-8.51,1.85-12.75.93-5.9,1.95-11.78,2.98-18,3.35.58,6.51,1.11,9.66,1.68,2.89.53,4.16-.22,4.87-3.06Z" fill="none"/><path d="m494.8,182.89c-4.22.02-7.07-4.11-5.93-8.19-1.15,4.09,1.71,8.21,5.93,8.19Z" fill="none"/><path d="m475.77,172.13c.03-.12.07-.22.11-.33-.03.11-.07.21-.11.33-1.99,7.44-1.52,14.62,4.62,19.9,4.7,4.04,9.97,6.95,15.89,6.76-5.93.19-11.2-2.72-15.89-6.76-6.14-5.28-6.61-12.46-4.62-19.9Z" fill="none"/><path d="m494.89,182.89s-.04,0-.06,0h0s.04,0,.06,0Z" fill="none"/><path d="m165.46,89.32c-3.35-.2-5.37,1.53-6.72,4.41-.25.54-.87,1.08-1.44,1.28-4.97,1.75-7.55,4.86-7.54,8.85,0-3.98,2.58-7.08,7.54-8.83.57-.2,1.19-.74,1.44-1.28,1.35-2.88,3.37-4.61,6.72-4.41,1.52.09,1.96-.7,1.97-2.17,0,0,0,0,0,0-.01,1.47-.45,2.25-1.97,2.16Z" fill="none"/><path d="m508.71,151.65c.03.07.08.13.11.21,0,.01.01.02.02.03,0-.01-.01-.02-.02-.03-.03-.08-.08-.13-.11-.21Z" fill="none"/><path d="m454.36,166.99c2.33,1.35,4.27.42,5.93-1.17,3.8-3.65,8.43-3.69,11.63.56.45.59.64,1.57.63,2.6.01-1.02-.18-2.01-.63-2.61-3.2-4.25-7.83-4.21-11.63-.56-1.66,1.59-3.6,2.52-5.93,1.17-1.17-.67-1.95-1.52-2.36-2.52.41,1,1.18,1.85,2.36,2.53Z" fill="none"/><path d="m514.96,158.63s-.02,0-.03-.01c.01,0,.02,0,.03.01,2.39.96,5.92.18,7.65-1.84-1.73,2.01-5.26,2.79-7.65,1.84Z" fill="none"/><path d="m498.61,180.64s.02-.05.03-.08c-.01.03-.02.06-.03.08-.43.99-2,1.97-3.27,2.2,1.28-.23,2.85-1.22,3.27-2.2Z" fill="none"/><path d="m479.98,169.83c2.15.75,4.51.91,6.77,1.35-2.26-.44-4.62-.61-6.77-1.35Z" fill="none"/><path d="m458.16,144.14h0s0-.02,0-.02c0,0,0,0,0,0h0c2.97,1.13,5.66,2.14,8.33,3.14-2.67-1-5.35-2.01-8.33-3.13Z" fill="none"/><path d="m467.37,143.26c0,1.33-.29,2.77-.86,3.98.58-1.2.86-2.65.86-3.98Z" fill="none"/><path d="m502.4,133.56h0c-1.36.34-3.97.55-6.13,1.64-.02,0-.03.02-.05.03.02,0,.03-.02.05-.03,2.17-1.08,4.77-1.29,6.13-1.64Z" fill="none"/><path d="m485.23,158.57c-.4-1.61-.73-3.38-.5-4.99.03-.24.08-.48.12-.73-.04.24-.08.48-.12.73-.23,1.61.1,3.38.5,4.99,1.25,5.03,4.59,8.68,8.28,12.09.86.79,1.78,1.56,2.64,2.38-.86-.81-1.78-1.58-2.64-2.38-3.69-3.41-7.02-7.06-8.28-12.09Z" fill="none"/><path d="m497.37,174.29c.38.44.72.9,1.01,1.38,0,0,0,0,0,.01,0,0,0,0,0-.01-.29-.49-.63-.95-1.01-1.38Z" fill="none"/><path d="m266.36,115.59c.57.28,1.15.55,1.74.81,2.3,1.02,4.68,1.91,6.88,3.11-2.2-1.21-4.58-2.11-6.9-3.12-.58-.26-1.15-.52-1.72-.8Z" fill="none"/><path d="m220.75,129.43c.37,1.58,1.24,3.24,2.37,4.4,1.09,1.11,2.53,2.18,4.54,1.19,1.72-.85,2.69-2.1,3.19-3.57-.5,1.46-1.47,2.72-3.18,3.56-2.01.99-3.45-.08-4.54-1.19-1.13-1.16-2-2.81-2.37-4.4-.69-2.94-1.09-5.97-1.34-8.99-.07-.87-.14-1.74-.2-2.6.07.87.12,1.74.19,2.61.25,3.02.65,6.05,1.34,8.99Z" fill="none"/><path d="m195.21,75.09c-1.71,1.75-3.02,4.05-3.96,6.85-.09.28-.23.56-.39.82.16-.27.3-.54.4-.83.94-2.8,2.25-5.09,3.95-6.84Z" fill="none"/><path d="m207.72,93.67c1.43.07,2.91-.07,4.32-.34,3.2-.62,5.51,1.06,5.74,4.32.3,4.18.58,8.36.87,12.54-.29-4.18-.57-8.37-.86-12.55-.23-3.26-2.53-4.93-5.74-4.32-1.41.27-2.89.41-4.32.34-2.67-.13-4.29.35-5.09,1.78.8-1.42,2.42-1.9,5.08-1.77Z" fill="none"/><path d="m243.66,92.73s0,0-.01,0c.84,7.37,1.82,14.71,2.47,22.09.7,7.93,1.83,15.9-.81,23.75-.63,1.86-1.46,3.51-2.53,4.91,1.07-1.4,1.91-3.05,2.54-4.92,2.65-7.85,1.51-15.82.81-23.75-.65-7.37-1.63-14.72-2.47-22.08Z" fill="none"/><path d="m196.68,93.62c2.48-4.4,6.73-7.19,12.46-7.93,1.81-.24,2.93-.61,3.63-1.38-.7.77-1.82,1.14-3.62,1.37-5.73.74-9.98,3.54-12.47,7.95Z" fill="none"/><path d="m238.44,78.51c2.75-.4,3.81,1.43,4.17,3.52.61,3.53.85,7.11,1.24,10.68,0,0,0,0,.01,0-.39-3.57-.63-7.16-1.24-10.69-.36-2.09-1.42-3.92-4.17-3.52-1.77.26-3.55.45-5.33.55-1.33.08-2.42.24-3.28.53.86-.28,1.94-.45,3.27-.52,1.78-.1,3.56-.29,5.33-.55Z" fill="none"/><path d="m189.77,84.19c-.23.28-.46.56-.66.85,0,0,0,0,0,0,.2-.29.43-.57.66-.85Z" fill="none"/><path d="m190.78,150.55c-3.33,1.03-4.22.54-5.05-2.99-.94-4.01-1.78-8.04-2.64-12.07-2.57-12.02-5.12-24.04-7.69-36.06-.97-4.55-2.02-9.08-2.98-13.64-.57-2.67-.46-4.18.74-5.24-1.21,1.06-1.32,2.57-.75,5.25.96,4.55,2.01,9.09,2.98,13.64,2.57,12.02,5.12,24.04,7.69,36.06.86,4.03,1.7,8.06,2.64,12.07.83,3.53,1.72,4.02,5.05,2.99,2.15-.66,4.29-1.36,6.44-2.04,1.2-.38,2.1-.85,2.7-1.45-.61.6-1.5,1.06-2.69,1.44-2.15.68-4.29,1.37-6.44,2.04Z" fill="none"/><path d="m172.42,154.3c-9.49,4.33-18.26,2.42-26.31-3.71-5.88-4.47-9.44-10.72-11.45-17.57-1.79-6.1-3.33-12.53-3.37-18.83,0,0,0,.01,0,.02.04,6.3,1.58,12.73,3.37,18.83,2.01,6.85,5.57,13.1,11.45,17.57,8.05,6.13,16.82,8.04,26.31,3.71,4.16-1.9,6.51-5.2,6.39-10.06,0,0,0,0,0,0,.11,4.85-2.23,8.15-6.39,10.04Z" fill="none"/><path d="m286.65,93.26c-1.87.73-3.55.67-5.11.07,1.57.61,3.25.67,5.13-.06,3.32-1.29,4.11-4.03,3.6-7.28h-.02c.51,3.24-.28,5.98-3.6,7.27Z" fill="none"/><path d="m267.93,92.48c-.77,2.44-.46,4.56,1.52,6.03,1.74,1.29,3.54,2.6,5.46,3.61-1.91-1.01-3.71-2.31-5.44-3.6-1.98-1.47-2.3-3.59-1.52-6.03.89-2.8,2.85-3.9,5.44-3.54,1.22.17,2.54.65,3.64,1.33-1.1-.69-2.43-1.18-3.66-1.34-2.59-.36-4.55.75-5.44,3.54Z" fill="none"/><path d="m264.93,124c.09,2.69,1.74,4.85,3.93,6-2.18-1.15-3.82-3.31-3.91-5.99-.05-1.48-.41-2.32-1.2-2.63.78.31,1.13,1.15,1.18,2.62Z" fill="none"/><path d="m290.23,85.97h.02c.78-4.73-1.59-7.81-5.28-9.65,3.68,1.84,6.04,4.92,5.26,9.65Z" fill="none"/><path d="m526.32,137.96c-3.42-3.56-6.87-7.06-11.37-8.89-6.24-2.54-12.83-3.48-19.49-1.27-2.31.77-4.66,1.46-6.87,2.44-1.47.64-1.95-.05-2.83-.99-2.25-2.42-4.45-5.04-7.15-6.86-7-4.73-14.86-5.19-22.96-3.67-1.07.2-2.14.35-3.35.55,2.31-6.78,4.35-13.25,6.72-19.59,2.69-7.18-.64-14.81-7.78-17.59-1.87-.73-3.52-2.02-5.29-3.01-.74-.41-1.7-1.18-2.3-.98-4.92,1.61-10.12,2.08-14.43,5.86-4.34,3.81-9.7,6.47-14.66,9.56-.77.48-1.77.58-3,.96.51-1.37.87-2.19,1.11-3.04.92-3.24,2.3-6.46,2.59-9.77.43-4.9-1.29-10.11-6.79-12.81-1.15-.57-2.37-1.02-3.53-1.58-5.49-2.66-12.99-2.88-17.43,2.25-3.67,4.24-7.43,8.4-10.96,12.75-1.17,1.43-1.79,1.49-3.14.31-4.92-4.31-10.64-7.09-17.22-7.18-4.4-.06-8.94.25-13.18,1.32-5.23,1.33-8.13,5.75-10.74,10.22-.51.88-1.47,1.5-2.72,2.72-.14-1.68-.31-2.4-.23-3.1.55-4.78,1.35-9.54,1.69-14.33.24-3.3-.04-6.54-1.92-9.64-3.6-5.92-15.3-7.38-20.31-5.55-5.97,2.17-7.83,7.4-9.26,12.9-.8,3.07-1.68,6.13-2.37,8.65-2.26-2.41-4.24-5.11-6.77-7.1-5.32-4.18-11.66-4.86-18.28-4.99-6.98-.13-12.64,2.26-17.42,7.01-1.94,1.93-3.45,4.3-5.17,6.48-1.05-5.19-6.07-9.29-10.8-8.52-.96.16-1.98.03-2.97.02-5.79-.07-10.99,1.22-14.68,6.41-.75-1.87-1.4-3.72-2.22-5.5-1.64-3.55-4-6.26-7.97-7.44-7.81-2.33-14.67-.64-20.37,4.98-1.81,1.77-2.95,2.12-5.11.93-1.15-.64-2.89-.75-4.2-.42-3.7.93-7.45,1.9-10.91,3.47-1.72.78-2.81.72-4.39.06-7.53-3.15-15.3-3.06-22.11,1.17-7.09,4.41-12.46,10.83-15.52,18.85-1.31,3.44-2.58,6.89-4,10.68-6.05-6.07-13.66-7.12-21.55-7.19-.41.09-.98.65-1.66.93-4.29,1.72-8.67,3.23-12.87,5.14-2.07.95-2.65.26-3.12-1.53-.87-3.31-2.42-6.28-5.33-8.21-5.09-3.37-10.24-6.69-15.48-9.82-3.28-1.97-6.85-2.49-10.46-.63-2.85,1.47-5.7,2.93-8.55,4.4-7.39,3.82-10.02,10.8-7.28,18.78v.03c-2.56-1.18-5.23-2.19-7.68-3.58-4.54-2.57-9.35-3.07-14.2-1.68-3.87,1.1-7.41,3.1-10.68,5.55-4.31,3.23-6.41,7.27-4.93,12.62,1.32,4.75,2.81,9.46,4.42,14.12,3.78,10.91,7.32,21.91,11.64,32.6,4.31,10.68,9.86,20.75,18.5,28.74,6.56,6.07,14.1,10.02,23.11,10.87,4.08.38,8.18.59,12.22,1.19,6.2.92,12.17.43,17.83-2.33,7.48-3.66,13.17-9.16,16.47-16.9.79-1.86,2.07-2.58,3.75-1.86,3.96,1.72,7.63.76,11.32-.75,4.42-1.81,8.92-3.5,10.99-8.61,5.03,3.08,9.77,1.11,14.57-.55,5.28-1.83,8.77-5.12,9.23-10.94,19.39,5.28,23.25,4.87,34.2-3.41,1.09.48,2.09,1.18,3.17,1.36,6.83,1.13,12.67-1.61,18.16-5.16,1.39-.9,2.26-1.17,3.52-.21,7.28,5.51,15.46,5.71,23.89,3.87,6.27-1.37,11.2-4.87,14.57-10.43,6.83,6.77,13.62,8.65,19.65,8.62,6.77-.03,13.17-1.85,18.37-6.47,1.37-1.22,1.96-.75,2.93.14,1.64,1.5,3.26,3.05,5.04,4.38,2.46,1.84,10.17,2.48,12.9-.07,2.46-2.29,4.73-4.78,7.1-7.2.17.29.55.98.95,1.67,2.6,4.48,5.83,8.29,10.88,10.11,3.65,1.31,7.39,2.79,11.26,1.24,2.11-.85,3.28.16,4.66,1.25,4.26,3.36,9.14,4.97,14.26,2.96,2.78-1.1,4.91-1.46,7.75-.36,4.01,1.54,8.27,2.43,12.42,3.59.34.1.7.12,1.04.21,4.55,1.16,8.99.48,13.39-.91.7,6.75,3.91,11.5,10.26,13.81,4.38,1.59,8.61.25,12.76-1.08,2.03-.65,3.45-1.1,5.33.88,2.4,2.54,4.96,4.81,8.72,6.08,6.49,2.2,12.64,2.21,18.98.34,1.5-.44,2,.17,2.58,1.37,5.01,10.31,13.66,15.35,24.76,15.66,7.01.19,14.06-.84,21.07-1.57,2.42-.25,4.97-.87,7.1-2.01,13.79-7.39,17.33-24.29,12.24-36.97.49-.16.97-.4,1.46-.46,5.7-.72,9.67-4.61,10.52-9.44,1.14-6.41,1.31-13.3-4.09-18.91Zm-446.29,51.1c-.7.85-1.42,1.64-2.17,2.37-5.22,5.13-11.62,7.52-19.01,7.26-7.23-.25-13.1-4.14-18.24-9.02-7.87-7.48-13.17-16.7-16.93-26.71-5.16-13.74-9.8-27.68-14.62-41.54-.47-1.35-.72-2.79-.96-4.21-.27-1.59.14-2.87,1.17-3.83.34-.33.76-.62,1.24-.88,3.01-1.61,5.98-3.3,9.03-4.84,2.45-1.24,4.19-.64,5.09,1.99,1.45,4.23,2.5,8.6,3.92,12.85,2.87,8.64,5.85,17.24,8.83,25.84,2.76,7.97,5.5,15.96,10.28,23.04,2.14,3.18,4.61,5.89,8.32,7.36,3.93,1.55,8.55-.26,11.24-3.51,1.26-1.53,2.1-3.38,2.23-5.36.55-8.48-2.83-15.95-5.85-23.33-5.86-14.33-12.53-28.33-18.96-42.43-1.54-3.36-1.78-4.53.53-6.59.29-.26.62-.54,1-.83,2.96-2.33,6.14-4.41,9.41-6.27,2.38-1.35,3.92-.69,4.93,1.86,6.64,16.74,13.45,33.43,19.7,50.32,2.68,7.25,4.24,14.93,6.13,22.46.52,2.06.4,4.28.58,6.43l-.02.02c.69,7.05-2.58,12.36-6.87,17.55Zm52.45-24.13c-1.19.42-2.37.87-3.56,1.28-1.27.43-2.28.66-3.11.63-1.83-.05-2.78-1.29-3.68-4.17-2.28-7.31-4.54-14.62-6.83-21.92-1.19-3.78-2.32-7.58-3.66-11.31-.63-1.76-1.47-3.52-2.58-5.01-1-1.34-2.25-2.35-3.87-2.41-.54-.02-1.12.07-1.74.29-2.57.9-4.11,2.73-4.2,5.35-.07,1.92.28,3.95.85,5.8,3.38,10.93,6.86,21.82,10.35,32.71,1.59,4.94.92,6.4-3.94,8.12-1.11.39-2.21.79-3.31,1.18-1.23.44-2.23.67-3.05.66-1.82-.01-2.82-1.18-3.7-3.89-2.43-7.45-4.76-14.93-7.17-22.38-3.16-9.77-6.35-19.53-9.53-29.29-1.42-4.36-.74-5.74,3.64-7.29.68-.24,1.39-.4,2.04-.71,1.01-.49,1.97-.79,2.87-.82,1.49-.06,2.81.63,3.89,2.41.16.28.54.42,1.05.8.6-.72,1.36-1.3,1.66-2.06,2.09-5.29,7.47-8.15,12.99-8.07,4.87.06,9.85,2.4,12.75,7.36,2.08,3.53,3.79,7.37,5.07,11.27,3.68,11.21,7.07,22.51,10.56,33.78,1.5,4.86.92,6.01-3.79,7.69Zm46.33-20.68c.12,4.86-2.23,8.16-6.39,10.06-9.49,4.33-18.26,2.42-26.31-3.71-5.88-4.47-9.44-10.72-11.45-17.57-1.79-6.1-3.33-12.53-3.37-18.83,0,0,0-.01,0-.02,0,0,0,0,0,0-.07-10.54,3.07-20.39,10.47-28.36,5.32-5.73,11.89-7.98,19.6-6.15,4.12.98,6.1,3.68,6.07,7.48,0,0,0,0,0,.01,0,0,0,0,0,0,0,1.47-.45,2.26-1.97,2.17-3.35-.2-5.37,1.53-6.72,4.41-.25.54-.87,1.08-1.44,1.28-4.96,1.75-7.54,4.85-7.54,8.83,0,1.81.54,3.8,1.64,5.94.08.15.11.32.2.58v.02s0,0,0,0h0c-1.51,1.58-2.47,3.36-2.98,5.19-1.73,6.23,1.76,13,6.8,13.85,1.46,2.72,2.12,5.86,4,7.04,3.16,1.97,6.43,3.88,9.75,5.62,1.07.56,3.11-.23,4.49-.87,3.94-1.82,5.04-1.17,5.14,3,0,0,0,.01,0,.02,0,0,0,0,0,0Zm21.1,2.81c-.61.61-1.5,1.07-2.7,1.45-2.15.68-4.29,1.38-6.44,2.04-3.33,1.03-4.22.54-5.05-2.99-.94-4.01-1.78-8.04-2.64-12.07-2.57-12.02-5.12-24.04-7.69-36.06-.97-4.55-2.02-9.09-2.98-13.64-.57-2.68-.46-4.19.75-5.25.72-.64,1.85-1.12,3.46-1.6,1.47-.43,2.92-.93,4.4-1.32,2.5-.66,4,.34,4.47,2.88.11.58.07,1.34.42,1.71.98,1.03,2.12,1.89,3.2,2.82.2-.29.43-.57.66-.85.38-.47.78-.93,1.08-1.43.16-.26.29-.53.39-.82.94-2.8,2.26-5.1,3.96-6.85,2.84-2.91,6.75-4.3,11.8-3.93,1.72.12,3.75,1.79,4.84,3.32,1.18,1.66,1.41,3.99,2.05,6.03h0c-.13,1.85-.41,3.03-1.12,3.8-.7.77-1.83,1.14-3.63,1.38-5.73.75-9.97,3.54-12.46,7.93-1.13,2-1.89,4.34-2.26,6.96-1.12,7.94.87,15.48,2.43,23.1,1.29,6.32,2.63,12.64,3.91,18.96.41,2.02.18,3.41-.85,4.42Zm45.41-8.5c-.63,1.87-1.47,3.51-2.54,4.92-1.78,2.34-4.2,4.02-7.38,4.94-6.45,1.88-12.86,2.57-19.13-.66-6.58-3.39-9.7-9.29-10.9-16.15-1.12-6.41-1.56-12.94-2.22-19.43-.44-4.35-.9-8.7-1.1-13.07-.07-1.62.11-2.82.59-3.68.8-1.43,2.42-1.91,5.09-1.78,1.43.07,2.91-.07,4.32-.34,3.21-.61,5.51,1.06,5.74,4.32.29,4.19.57,8.37.86,12.55.18,2.54.37,5.09.57,7.63.07.87.13,1.74.2,2.6.25,3.02.65,6.05,1.34,8.99.37,1.59,1.24,3.24,2.37,4.4,1.09,1.11,2.53,2.18,4.54,1.19,1.71-.84,2.68-2.1,3.18-3.56.3-.88.43-1.83.46-2.81.08-2.94-.29-5.89-.57-8.83-.5-5.25-1.06-10.49-1.62-15.73-.64-5.89-1.24-11.78-1.99-17.65-.51-4.03.11-6,2.71-6.85.86-.29,1.95-.45,3.28-.53,1.78-.1,3.56-.29,5.33-.55,2.75-.4,3.81,1.43,4.17,3.52.61,3.53.85,7.12,1.24,10.69,0,0,0,0-.01,0h0c-.06,0-.13.02-.19.03.84,7.36,1.82,14.71,2.47,22.08.7,7.93,1.84,15.9-.81,23.75Zm47.25-13.35c-.19,4-.3,7.9-2.06,11.59-2.01,4.21-5.16,7.1-9.63,8.5-5.6,1.75-11.15,2.29-16.77-.09-.75-.32-1.47-.67-2.15-1.05-4.77-2.64-7.78-6.73-9.19-12.18-1.52-5.86.72-9.22,6.65-10.21.8-.13,1.6-.26,2.39-.42.83-.17,1.46-.17,1.94.02.79.31,1.15,1.14,1.2,2.63.09,2.68,1.73,4.84,3.91,5.99,2.18,1.14,4.9,1.27,7.16-.11,3.41-2.08,3.32-7.81-.34-10-.23-.14-.47-.25-.7-.38-2.19-1.2-4.58-2.09-6.88-3.11-.59-.26-1.17-.53-1.74-.81-4.91-2.38-9.13-5.49-11.33-10.94-3.51-8.66-1.34-20.57,5.04-26.6,4.08-3.85,8.96-5.41,14.49-4.42,3.26.58,6.66,1.03,9.65,2.33.26.11.51.23.76.36,3.69,1.84,6.06,4.92,5.28,9.66h.02c.51,3.26-.28,6-3.6,7.29-1.88.73-3.56.67-5.13.06-.01,0-.02-.01-.04-.02-.16-.06-.32-.13-.47-.2-1.03-.48-2.02-1.2-2.99-2.07-.3-.27-.65-.53-1.01-.76-1.1-.69-2.42-1.16-3.64-1.33-2.59-.36-4.55.74-5.44,3.54-.78,2.44-.46,4.56,1.52,6.03,1.73,1.29,3.53,2.59,5.44,3.6.63.33,1.27.64,1.93.9,1.11.44,2.19.94,3.24,1.5,7.34,3.94,12.97,10.94,12.49,20.7Zm26.74-15.46c-1.03,6.22-2.05,12.1-2.98,18-.67,4.24-1.16,8.51-1.85,12.75-.65,3.98-3.91,6.31-7.53,5.55-3.67-.77-5.99-2.97-6.72-5.84-.28-1.06-.34-2.21-.17-3.43,1.08-7.54,1.78-15.14,2.67-22.71.3-2.55.68-5.08,1.05-7.94-2.53-.36-4.88-.63-7.19-1.04-1.99-.35-3.11-.95-3.66-2.12-.08-.16-.13-.34-.18-.52-.02-.08-.06-.14-.08-.22-.14-.56-.21-1.23-.21-2.02v-4.6c0-2.96,1.22-4.25,4.24-4.13,2.75.11,5.48.47,8.39.74.34-3.61.67-6.88.95-10.15.37-4.36.56-8.73,1.08-13.07.46-3.86,3.59-6.09,7.48-5.65,1.32.15,2.64.36,3.95.58,3.2.54,5.24,2.76,5.77,5.68.18.98.2,2.04.03,3.13-1.05,6.88-1.77,13.81-2.61,20.72-.04.33.06.69.12,1.23,3.1.56,6.19,1.09,9.25,1.68,2.3.45,3.57,1.22,4.02,2.63.28.85.26,1.92,0,3.3-.39,2.03-.79,4.06-1.29,6.06-.71,2.84-1.98,3.59-4.87,3.06-3.15-.57-6.31-1.1-9.66-1.68Zm48.96,41.78c.09,3.73-2.82,5.9-6.44,4.83-1.6-.47-3-1.14-4.16-2.04-2.05-1.59-3.37-3.95-3.7-7.44-1.32,1.04-2.13,1.8-3.05,2.39-5.59,3.53-13.15,2.21-17.87-2.62-.68-.69-1.29-1.45-1.84-2.28-6.26-9.54-3.26-23.46,3.51-30.73,4.72-5.08,13.82-5.85,20.09-1.29,1.45,1.05,2.74,2.39,3.8,4.02.54-4.09,1.25-8.17,1.55-12.29.12-1.71-.53-3.04-1.64-4.02-.67-.59-1.5-1.05-2.43-1.39-2.63-.97-5.21-1.21-7.45,1.09-2.11,2.17-4.43,1.57-6.79.33-.83-.44-1.57-.97-2.21-1.57-1.96-1.83-2.89-4.24-1.92-6.27,1.12-2.37,2.63-4.76,4.53-6.53,4.73-4.39,10.65-4.2,16.33-2.77,3.22.81,6.24,1.99,8.76,3.73,3.24,2.24,5.66,5.42,6.6,9.97.83,3.98.63,8.33.1,12.41-.65,5.01-2.3,9.88-3.21,14.87-1.18,6.5-2.22,13.03-2.99,19.59-.31,2.62.38,5.34.44,8.02Zm26.6,8.25c-1.96-.25-3.92-.85-5.82-1.86-2.39-1.28-4.27-2.47-7.05-2.3-.4.02-.81.08-1.25.16-.28.05-.56.08-.83.09-4.04.16-7.03-4.25-6.02-8.51,1.63-6.93,3.42-13.82,5.11-20.73,1.56-6.36,3.06-12.74,4.62-19.1,1.8-7.33,3.64-14.65,5.45-21.97.69-2.78,1.28-5.58,2.07-8.33.86-3,2.79-4.63,5.38-4.75.07,0,.13,0,.2,0,.15,0,.3,0,.45,0,.68.03,1.39.16,2.14.39.39.12.78.25,1.17.37.77.24,1.53.49,2.28.76.47.17.94.32,1.4.51,3.18,1.3,4.84,4.39,3.86,7.69-2.09,7.06-4.39,14.05-6.53,21.09-.28.91-.12,1.95-.18,3.27h-.01c4.06.16,7.77.48,10.85,3.06,4.44,3.7,6.57,8.59,6.95,14.17.66,9.57-1.11,18.68-6.46,26.81-4.37,6.63-11.09,10.04-17.79,9.18Zm32.48,9.23c-.64,1.78-2.09,3.57-3.65,4.67-2.99,2.1-5.49-.25-7.73-1.85-.81-.58-1.37-1.31-1.73-2.12-.59-1.35-.6-2.94-.19-4.49,1.84-6.98,3.8-13.93,5.81-20.87,5-17.25,10.06-34.48,15.1-51.72.2-.69.38-1.39.64-2.06,1-2.56,2.53-4.4,5.67-3.9.07-.21.14-.42.21-.63v-.02c2.98,1.15,6.09,2.04,8.88,3.54.98.53,1.66,1.32,2.08,2.29.7,1.62.63,3.74-.15,5.97-3.64,10.43-7.33,20.84-10.97,31.27-4.65,13.31-9.2,26.66-13.97,39.92Zm24.65-4.56c.41,1,1.19,1.84,2.36,2.52,2.33,1.35,4.27.42,5.93-1.17,3.8-3.65,8.43-3.69,11.63.56.45.6.64,1.58.63,2.61-.01,1.02-.23,2.09-.59,2.84-3.77,7.83-11.66,11.22-20.09,9.09-8.03-2.03-13.97-6.18-14.22-16.24-.02-.67,0-1.37.03-2.09.19-4.07,1.07-8.17,2.15-12.12,1.76-6.43,4.4-12.47,8.21-18.08,8.21-12.09,26.96-7.64,31.85.75.91,1.56,1.3,3.52,1.53,5.34.11.87.17,1.72.18,2.57.1,5.95-1.96,11.52-3.85,17.11-1.44,4.26-2.34,4.7-6.51,3.21-5.33-1.91-10.63-3.91-15.95-5.86-.5-.18-1.01-.34-1.72-.58-.63,2.22-1.27,4.16-1.73,6.14-.29,1.27-.24,2.41.16,3.4Zm71.79-12.54c0,.08,0,.16-.01.23-.03.77-.09,1.55-.16,2.32-.08.89-.46,1.66-1.01,2.31-1.73,2.02-5.26,2.8-7.65,1.84-.01,0-.02,0-.03-.01-3.18-1.29-4.81-3.78-6.09-6.72,0-.01-.01-.02-.02-.03-.03-.08-.08-.13-.11-.21-1.01-2.07-2.92-2.69-5.19-2.7h0c-2.1,0-3.3,1.2-3.64,2.95-.23,1.19,0,2.86.72,3.77,2.62,3.3,5.58,6.34,8.33,9.54,8.29,9.62,4.68,27.95-6.5,32.29-2.12.83-4.17,1.23-6.15,1.3-5.93.19-11.2-2.72-15.89-6.76-6.14-5.28-6.61-12.46-4.62-19.9.03-.12.07-.22.11-.33.59-1.87,1.72-2.81,4.09-1.98,0,0,0,0,0,0,2.15.74,4.51.91,6.77,1.35,0,0,0,0,.01,0,1.97.38,2.72,1.41,2.12,3.49,0,.01,0,.02,0,.04-1.14,4.08,1.71,8.21,5.93,8.19,0,0,.01,0,.02,0,.02,0,.04,0,.06,0,.15,0,.3-.02.46-.04,1.27-.23,2.84-1.21,3.27-2.2.01-.03.02-.05.03-.08.57-1.4.49-3.6-.26-4.88,0,0,0,0,0-.01-.29-.49-.63-.95-1.01-1.38-.38-.44-.79-.86-1.21-1.26-.86-.81-1.78-1.58-2.64-2.38-3.69-3.41-7.03-7.06-8.28-12.09-.4-1.61-.73-3.38-.5-4.99.03-.24.08-.48.12-.73,1.19-7.48,4.15-14,11.37-17.63.02,0,.03-.02.05-.03,2.16-1.09,4.77-1.3,6.13-1.64h0c9.3.41,15.35,4.2,19.67,10.96,1.48,2.31,1.79,4.85,1.72,7.4Z" fill="#fafafa"/><polygon points="181.25 65.39 181.25 65.38 181.24 65.38 181.25 65.39" fill="#8c8e91"/><path d="m168.29,58.56c2.85.78,5.96.6,9.67.91.77,1.4,2.03,3.66,3.28,5.92,7.6-3.35,15-6.45,22.26-9.85,10.05-4.72,20.69-7.64,31.45-9.89,8.19-1.71,16.6-2.83,24.95-3.21,9.7-.44,19.44.14,29.16.44,3.29.1,6.61.49,9.85,1.09,6.11,1.14,12.34,2.04,18.24,3.92,9.06,2.89,17.95,6.36,26.79,9.88,5.85,2.33,11.5,5.16,17.67,7.97.91-1.79,1.65-3.58,2.69-5.18.53-.8,2-1.95,2.35-1.75,2.9,1.67,5.58.61,8.28-.33,5.81-2.02,9.29-9.71,6.74-15.19-1.14-2.44-2.71-4.68-4.28-7.35.73-1.4,1.71-3.33,2.73-5.23.65-1.2.79-2.09-.82-2.72-1.82-.71-3.53-1.71-5.3-2.57-5.15-2.5-10.22-5.18-15.47-7.43-5.05-2.17-10.3-3.88-15.45-5.82-3.54-1.32-6.96-3.13-10.61-3.95-9.19-2.07-18.46-3.83-27.75-5.45-5.7-.99-11.47-1.72-17.24-2.15-14.48-1.08-28.95-.73-43.37.99-5.94.71-11.93,1.28-17.79,2.48-5.96,1.22-11.79,3.1-17.66,4.76-3.54,1-7.13,1.88-10.53,3.24-7.11,2.85-14.16,5.86-21.12,9.04-5.06,2.31-9.93,5.01-15.13,7.65.85,1.78,1.51,3.33,2.31,4.81.99,1.83.98,3.19-.58,4.96-1.65,1.87-3.14,4.29-3.64,6.69-1.37,6.61,3.68,12.05,8.32,13.32Zm1.38-20.86h0c-1.28-2.51-2.5-4.91-3.84-7.54,0,0,0,0,0,0,0,0,0-.01,0-.02C198.75,12.07,233.79,3.01,271.28,3.05c37.47.04,72.57,8.98,105.71,27.14,0,0,0,.01,0,.02,0,0,0,0,0,0-1.29,2.51-2.53,4.95-3.77,7.38,3.49,2.61,5.54,5.06,6.23,7.56.56,2,.25,4.03-.9,6.19-2.62,4.98-6.78,5.94-14.4,3.26-1.26,2.23-2.53,4.48-3.95,7.01-1.69-.78-3.32-1.48-4.9-2.27-18.02-9.02-36.83-15.65-56.86-18.34-12.21-1.64-24.47-2.15-36.85-1.61-18.39.81-36.12,4.41-53.24,10.94-7.82,2.98-15.38,6.62-23,10.11-1.99.91-3.25,1.09-4.18-1.27-.62-1.57-1.63-2.98-2.6-4.72-3.17,1.8-6.61,3.07-9.87.93-1.99-1.31-3.83-3.3-4.95-5.4-.55-1.04-.82-2.1-.81-3.17,0-3.2,2.4-6.45,6.74-9.1Z" fill="#8c8e91"/><path d="m387.88,35.25c2.49.04,3.66-1.15,3.69-3.78h.01c.04-3.11-.59-3.83-3.37-3.85-2.81-.02-4.2,1.17-4.23,3.61-.03,2.53,1.37,3.97,3.9,4.02Z" fill="#fafafa"/><path d="m86.92,171.5c-.18-2.15-.06-4.37-.58-6.43-1.89-7.53-3.45-15.21-6.13-22.46-6.25-16.89-13.06-33.58-19.7-50.32-1.01-2.55-2.55-3.21-4.93-1.86-3.27,1.86-6.45,3.94-9.41,6.27-.38.3-.7.57-1,.83-2.28,2.05-2.04,3.22-.51,6.57,6.42,14.1,13.09,28.1,18.96,42.43,3.02,7.38,6.39,14.86,5.85,23.33-.13,1.98-.97,3.84-2.25,5.38-2.69,3.25-7.31,5.07-11.24,3.51-3.71-1.47-6.18-4.18-8.32-7.36-4.78-7.08-7.52-15.07-10.28-23.04-2.98-8.6-5.96-17.2-8.83-25.84-1.42-4.25-2.47-8.62-3.92-12.85-.9-2.63-2.64-3.23-5.09-1.99-3.05,1.54-6.02,3.23-9.03,4.84-.48.26-.89.55-1.24.88-1.01.96-1.42,2.23-1.15,3.82.24,1.42.49,2.86.96,4.21,4.82,13.87,9.46,27.8,14.62,41.54,3.76,10.01,9.06,19.23,16.93,26.71,5.14,4.88,11.01,8.77,18.24,9.02,7.38.25,13.77-2.12,18.99-7.24.75-.73,1.47-1.52,2.17-2.37,4.29-5.19,7.56-10.5,6.87-17.55l.02-.02Z" fill="#2098d2"/><path d="m419.12,123.8c-.38-5.58-2.51-10.47-6.95-14.17-3.08-2.58-6.79-2.9-10.85-3.06h.01c.06-1.32-.1-2.36.18-3.27,2.14-7.04,4.44-14.03,6.53-21.09.98-3.3-.68-6.39-3.86-7.69-.46-.19-.93-.34-1.4-.51-.76-.27-1.52-.53-2.28-.76-.39-.12-.78-.25-1.17-.37-.75-.23-1.47-.36-2.14-.39-.15,0-.3,0-.45,0-.07,0-.14,0-.2,0-2.59.12-4.51,1.76-5.37,4.75-.79,2.75-1.38,5.55-2.07,8.33-1.82,7.32-3.65,14.64-5.45,21.97-1.56,6.36-3.06,12.74-4.62,19.1-1.7,6.91-3.49,13.8-5.11,20.73-.99,4.25,1.98,8.67,6.01,8.51.27-.01.55-.04.83-.09.44-.08.85-.14,1.25-.16,2.78-.17,4.66,1.02,7.06,2.3,1.9,1.01,3.85,1.61,5.81,1.86,6.71.86,13.42-2.54,17.79-9.18,5.35-8.13,7.12-17.24,6.46-26.81Zm-15.13,2.33s0,.02,0,.03c-.02.34,0,.69,0,1.03,0,0,0,0,0,0,0,0,0,0,0,0,0,0,0,0,0,0h0s0,0,0,0c-.27,5.39-1.63,10.47-4.58,15.03-.94,1.45-2.11,2.82-4.2,2.18-2.19-.68-3.13-2.29-3.16-4.5,0,0,0,0,0,0,0,0,0,0,0,0-.07-5.73,1.95-10.94,4.25-16.03.86-1.91,2.59-3.06,4.89-2.36,1.98.6,2.82,1.96,2.84,3.8,0,.26-.01.54-.04.82Z" fill="#2098d2"/><path d="m368.26,151.52c-.06-2.68-.75-5.4-.44-8.02.77-6.56,1.81-13.09,2.99-19.59.91-4.99,2.56-9.86,3.21-14.87.53-4.08.73-8.42-.1-12.41-.94-4.54-3.35-7.72-6.59-9.96-2.52-1.74-5.54-2.92-8.76-3.73-5.68-1.43-11.6-1.62-16.33,2.77-1.9,1.77-3.41,4.16-4.53,6.53-.97,2.03-.03,4.45,1.92,6.27.63.59,1.38,1.12,2.2,1.56,2.35,1.24,4.68,1.84,6.79-.33,2.25-2.3,4.82-2.06,7.45-1.09.93.34,1.77.81,2.44,1.4,1.11.98,1.77,2.31,1.64,4.02-.3,4.12-1.01,8.2-1.55,12.29,0,0,0,0,0,0-1.06-1.63-2.35-2.97-3.8-4.02-6.27-4.56-15.37-3.79-20.09,1.29-6.77,7.27-9.77,21.19-3.51,30.73.55.83,1.16,1.59,1.84,2.28,4.72,4.82,12.27,6.13,17.86,2.61.93-.59,1.75-1.35,3.06-2.39,0,0,0,.01,0,.02.33,3.49,1.65,5.85,3.7,7.44,1.16.9,2.56,1.56,4.15,2.03,3.62,1.08,6.53-1.09,6.44-4.83Zm-15.05-20.72c-.1,4.36-2.59,7.43-5.9,7.3,0,0,0,0,0,0,0,0,0,0,0,0-3.44-.13-5.74-2.97-5.6-6.92.15-4.25,2.54-7.22,5.75-7.14,0,0,0,0,0,0,0,0,0,0,0,0,3.43.08,5.84,2.92,5.76,6.76h-.01Z" fill="#2098d2"/><path d="m132.47,164.94c4.71-1.68,5.29-2.83,3.79-7.69-3.49-11.27-6.87-22.58-10.56-33.78-1.29-3.89-3-7.73-5.07-11.27-2.91-4.95-7.88-7.3-12.74-7.36-5.52-.07-10.9,2.78-12.99,8.07-.3.76-1.06,1.34-1.66,2.06h-.01c-.51-.38-.88-.53-1.05-.8-1.07-1.78-2.39-2.46-3.88-2.41-.9.03-1.86.33-2.87.82-.65.31-1.36.47-2.04.71-4.38,1.55-5.06,2.93-3.64,7.29,3.18,9.76,6.37,19.52,9.53,29.29,2.41,7.45,4.74,14.93,7.17,22.38.88,2.7,1.88,3.87,3.7,3.89.82,0,1.82-.22,3.04-.66,1.11-.39,2.21-.79,3.31-1.18,4.86-1.71,5.53-3.18,3.94-8.12-3.49-10.89-6.97-21.79-10.35-32.71-.57-1.85-.92-3.87-.85-5.8.1-2.62,1.63-4.45,4.2-5.35.63-.22,1.21-.31,1.75-.29,1.62.05,2.88,1.07,3.87,2.41,1.11,1.49,1.95,3.25,2.58,5.01,1.34,3.73,2.47,7.53,3.66,11.31,2.29,7.3,4.55,14.61,6.83,21.92.9,2.88,1.85,4.13,3.68,4.17.83.02,1.84-.2,3.1-.63,1.19-.41,2.37-.86,3.56-1.28Z" fill="#2098d2"/><path d="m246.12,114.82c-.65-7.38-1.63-14.72-2.47-22.09,0,0,0,0,.01,0,.06,0,.13-.02.19-.02h0c-.39-3.58-.63-7.16-1.24-10.69-.36-2.09-1.42-3.92-4.17-3.52-1.77.26-3.55.45-5.33.55-1.33.07-2.41.24-3.27.52-2.6.85-3.22,2.82-2.71,6.85.75,5.87,1.35,11.76,1.99,17.65.56,5.24,1.12,10.48,1.62,15.73.28,2.94.65,5.89.57,8.83-.03.98-.16,1.93-.46,2.81-.5,1.47-1.47,2.72-3.19,3.57-2.01.99-3.45-.08-4.54-1.19-1.13-1.16-2-2.82-2.37-4.4-.69-2.94-1.09-5.97-1.34-8.99-.07-.87-.13-1.74-.19-2.61-.2-2.54-.39-5.09-.57-7.63-.29-4.18-.57-8.36-.87-12.54-.23-3.26-2.54-4.94-5.74-4.32-1.41.27-2.89.41-4.32.34-2.66-.13-4.28.35-5.08,1.77-.48.86-.66,2.06-.59,3.68.2,4.37.66,8.72,1.1,13.07.66,6.49,1.1,13.02,2.22,19.43,1.2,6.86,4.32,12.76,10.9,16.15,6.27,3.23,12.68,2.54,19.13.66,3.18-.93,5.6-2.6,7.38-4.94,1.06-1.4,1.9-3.04,2.53-4.91,2.64-7.85,1.51-15.82.81-23.75Z" fill="#2098d2"/><path d="m280.86,145.3c4.47-1.4,7.62-4.28,9.63-8.5,1.76-3.69,1.86-7.59,2.06-11.59.48-9.75-5.14-16.75-12.47-20.69-1.05-.56-2.13-1.06-3.24-1.5-.66-.26-1.3-.56-1.93-.9-1.92-1.01-3.72-2.32-5.46-3.61-1.98-1.47-2.29-3.59-1.52-6.03.89-2.79,2.85-3.9,5.44-3.54,1.23.17,2.56.65,3.66,1.34.37.23.71.48,1.01.76.97.88,1.96,1.59,2.99,2.07.16.07.32.14.47.2.01,0,.02.01.04.02,1.57.6,3.24.66,5.11-.07,3.32-1.29,4.11-4.03,3.6-7.28h-.02c.78-4.74-1.58-7.82-5.26-9.66-.25-.12-.5-.24-.76-.36-2.99-1.3-6.39-1.75-9.65-2.33-5.53-.99-10.41.57-14.49,4.42-6.38,6.03-8.55,17.94-5.04,26.6,2.21,5.45,6.43,8.56,11.33,10.94.56.27,1.14.54,1.72.8,2.31,1.01,4.7,1.91,6.9,3.12.23.13.47.24.7.38,3.66,2.19,3.75,7.92.34,10-2.26,1.38-4.98,1.25-7.16.11-2.19-1.15-3.84-3.31-3.93-6-.05-1.47-.4-2.3-1.18-2.62-.48-.19-1.11-.19-1.94-.02-.79.16-1.59.29-2.39.42-5.93.99-8.17,4.35-6.65,10.21,1.41,5.45,4.43,9.54,9.19,12.18.67.37,1.38.72,2.13,1.04,5.62,2.39,11.17,1.85,16.77.09Z" fill="#2098d2"/><path d="m502.4,133.56c-1.36.35-3.96.56-6.13,1.64-.02,0-.03.02-.05.03-7.23,3.63-10.18,10.15-11.37,17.63-.04.24-.08.48-.12.73-.23,1.61.1,3.38.5,4.99,1.26,5.03,4.59,8.68,8.28,12.09.86.79,1.78,1.56,2.64,2.38.43.41.84.82,1.21,1.26.38.44.72.9,1.01,1.38,0,0,0,0,0,.01.75,1.28.84,3.48.26,4.88-.01.03-.02.06-.03.08-.42.98-1.99,1.97-3.27,2.2-.16.03-.31.04-.46.04-.02,0-.04,0-.06,0h0s-.01,0-.02,0c-4.22.02-7.08-4.1-5.93-8.19,0-.01,0-.02,0-.04.6-2.08-.15-3.11-2.12-3.49,0,0,0,0-.01,0-2.26-.44-4.62-.6-6.77-1.35,0,0,0,0,0,0-2.37-.82-3.5.11-4.09,1.98-.03.11-.07.21-.11.33-1.99,7.44-1.52,14.62,4.62,19.9,4.7,4.03,9.97,6.94,15.89,6.76,1.98-.06,4.02-.47,6.15-1.3,11.18-4.34,14.79-22.67,6.5-32.29-2.75-3.2-5.71-6.24-8.33-9.54-.72-.91-.95-2.58-.72-3.77.34-1.75,1.54-2.95,3.64-2.95h0c2.27,0,4.18.63,5.19,2.7.03.07.08.13.11.21,0,.01.01.02.02.03,1.28,2.94,2.92,5.43,6.09,6.72.01,0,.02,0,.03.01,2.38.95,5.92.18,7.65-1.84.56-.65.93-1.42,1.01-2.31.07-.77.13-1.55.16-2.32,0-.08,0-.16.01-.23.07-2.56-.24-5.09-1.72-7.4-4.32-6.76-10.37-10.55-19.67-10.96Z" fill="#2098d2"/><path d="m173.67,141.24c-1.38.64-3.42,1.43-4.49.87-3.32-1.74-6.59-3.65-9.75-5.62-1.88-1.18-2.54-4.32-4-7.04-5.04-.85-8.53-7.62-6.8-13.85.51-1.83,1.47-3.61,2.97-5.19,0,0,0,0,0,0v-.02c-.1-.26-.13-.43-.21-.58-1.09-2.13-1.63-4.13-1.64-5.94-.01-4,2.57-7.11,7.54-8.85.57-.2,1.19-.74,1.44-1.28,1.35-2.88,3.37-4.61,6.72-4.41,1.52.09,1.96-.69,1.97-2.16,0,0,0,0,0-.01.03-3.8-1.95-6.5-6.07-7.48-7.71-1.83-14.28.42-19.6,6.15-7.4,7.97-10.54,17.82-10.47,28.36,0,0,0,0,0,0,.04,6.3,1.58,12.73,3.37,18.83,2.01,6.85,5.57,13.1,11.45,17.57,8.05,6.13,16.82,8.04,26.31,3.71,4.16-1.9,6.5-5.19,6.39-10.04,0,0,0-.01,0-.02-.1-4.17-1.2-4.82-5.14-3Z" fill="#2098d2"/><path d="m453.57,154.92c.72.24,1.23.4,1.72.58,5.32,1.95,10.62,3.95,15.95,5.86,4.17,1.49,5.07,1.05,6.51-3.21,1.89-5.58,3.96-11.16,3.85-17.11-.01-.85-.07-1.7-.18-2.56-.23-1.83-.62-3.79-1.53-5.34-4.89-8.38-23.63-12.84-31.85-.75-3.81,5.6-6.45,11.65-8.21,18.08-1.08,3.95-1.95,8.05-2.15,12.12-.03.72-.04,1.41-.03,2.08.25,10.06,6.19,14.2,14.22,16.24,8.43,2.13,16.32-1.26,20.09-9.09.37-.76.58-1.82.59-2.84.01-1.02-.18-2-.63-2.6-3.2-4.25-7.83-4.21-11.63-.56-1.66,1.59-3.6,2.52-5.93,1.17-1.17-.68-1.95-1.53-2.36-2.53-.41-.99-.45-2.14-.16-3.4.46-1.98,1.1-3.91,1.73-6.14Zm4.59-10.78s0,0,0,0c4.13-5.53,5.45-6.28,7.91-4.68.85.55,1.3,2.08,1.29,3.81,0,1.33-.29,2.78-.86,3.98,0,.01-.01.03-.02.04h0c-2.67-1-5.36-2.01-8.33-3.13h0Z" fill="#2098d2"/><path d="m306.94,146.02c3.62.76,6.88-1.57,7.53-5.55.7-4.24,1.18-8.51,1.85-12.75.93-5.89,1.95-11.78,2.98-18,3.35.58,6.51,1.11,9.66,1.68,2.89.53,4.16-.21,4.87-3.06.5-2,.9-4.03,1.29-6.06.26-1.36.28-2.43.01-3.27-.45-1.41-1.72-2.19-4.02-2.63-3.07-.59-6.16-1.12-9.25-1.68h0c-.06-.56-.16-.92-.12-1.26.84-6.91,1.55-13.84,2.61-20.72.17-1.09.16-2.14-.02-3.1-.53-2.92-2.57-5.13-5.77-5.68-1.31-.22-2.63-.43-3.95-.58-3.89-.44-7.02,1.79-7.48,5.65-.52,4.34-.71,8.71-1.08,13.07-.28,3.27-.61,6.54-.95,10.15-2.91-.27-5.64-.63-8.39-.74-3.02-.12-4.24,1.17-4.24,4.13v4.6c0,.79.06,1.46.21,2.02.02.08.05.14.08.22.06.18.11.36.18.52.56,1.15,1.67,1.74,3.65,2.09,2.32.41,4.68.68,7.21,1.04,0,0,0,.02,0,.03-.38,2.86-.76,5.4-1.05,7.94-.89,7.57-1.59,15.17-2.67,22.71-.17,1.21-.11,2.37.17,3.43.74,2.86,3.06,5.05,6.71,5.81Z" fill="#2098d2"/><path d="m196.85,123.69c-1.56-7.62-3.55-15.16-2.43-23.1.37-2.63,1.13-4.96,2.26-6.96,2.48-4.41,6.73-7.2,12.47-7.95,1.8-.23,2.92-.6,3.62-1.37.71-.77.99-1.95,1.12-3.8h0c-.64-2.04-.87-4.37-2.05-6.03-1.09-1.53-3.12-3.2-4.84-3.32-5.05-.36-8.96,1.02-11.8,3.93-1.7,1.74-3.01,4.04-3.95,6.84-.1.29-.24.56-.4.83-.3.5-.7.96-1.08,1.43-.23.28-.46.56-.66.85,0,0,0,0,0,0-1.08-.93-2.22-1.79-3.2-2.82-.35-.37-.31-1.13-.42-1.71-.47-2.54-1.97-3.54-4.47-2.88-1.48.39-2.93.89-4.4,1.32-1.62.47-2.74.95-3.46,1.6-1.2,1.06-1.3,2.57-.74,5.24.96,4.56,2.01,9.09,2.98,13.64,2.57,12.02,5.12,24.04,7.69,36.06.86,4.03,1.7,8.06,2.64,12.07.83,3.53,1.72,4.02,5.05,2.99,2.15-.67,4.29-1.36,6.44-2.04,1.2-.38,2.09-.84,2.69-1.44,1.02-1.01,1.26-2.4.85-4.42-1.28-6.32-2.62-12.64-3.91-18.96Z" fill="#2098d2"/><path d="m452.29,97.82c.78-2.23.85-4.35.15-5.97-.41-.96-1.1-1.75-2.07-2.27-2.79-1.49-5.91-2.39-8.88-3.54v.02c-.07.21-.14.42-.21.63-3.14-.5-4.67,1.34-5.67,3.9-.26.67-.44,1.37-.64,2.06-5.04,17.24-10.1,34.47-15.1,51.72-2.01,6.94-3.97,13.89-5.81,20.87-.41,1.54-.4,3.12.18,4.47.35.81.92,1.54,1.73,2.12,2.24,1.6,4.74,3.95,7.73,1.85,1.56-1.1,3.01-2.89,3.65-4.67,4.77-13.26,9.32-26.61,13.97-39.92,3.64-10.43,7.33-20.84,10.97-31.27Z" fill="#2098d2"/><path d="m168.7,55.37c3.26,2.14,6.7.87,9.87-.93.97,1.74,1.98,3.15,2.6,4.72.93,2.36,2.19,2.18,4.18,1.27,7.62-3.49,15.18-7.13,23-10.11,17.12-6.53,34.85-10.13,53.24-10.94,12.38-.54,24.64-.03,36.85,1.61,20.03,2.69,38.84,9.32,56.86,18.34,1.58.79,3.21,1.49,4.9,2.27,1.42-2.53,2.69-4.78,3.95-7.01,7.62,2.68,11.78,1.72,14.4-3.26,1.14-2.17,1.45-4.2.9-6.19-.69-2.5-2.74-4.95-6.24-7.55,0,0,0,0,0-.01,1.25-2.43,2.49-4.87,3.77-7.38,0,0,0,0,0,0-33.15-18.16-68.23-27.1-105.7-27.14-37.49-.04-72.53,9.02-105.44,27.09,0,0,0,0,0,0,1.34,2.63,2.56,5.03,3.84,7.54h0s0,.02,0,.02c-4.33,2.64-6.74,5.88-6.74,9.09,0,1.07.26,2.14.81,3.17,1.12,2.1,2.96,4.09,4.95,5.4Zm201.33-10.71h0s0,0,0,0c.99,1.09,1.5,1.64,2.01,2.2-.72.64-1.37,1.43-2.21,1.82h0c-.11.06-.46-.2-.8-.54-.32-.32-.6-.71-.63-.99,0-.01,0-.03,0-.04,0-.65.82-1.31,1.63-2.45Zm-24.51-26.19c1.65.75,3.21,1.46,4.76,2.16,0,0,0,0,0,.01,0,0,0,0,.01,0-1.19,4.5-3.14,6.55-5.87,6.1,0,0,0-.01,0-.02,0,0-.01,0-.02,0,0,0,0,0,0,0h-.01s0,0,.01,0c.39-1.36,1.76-2.84,1.07-4.06-.24-.4-.7-.78-1.51-1.11,0,0,0,0,0-.01,0,0-.01,0-.02,0,.53-1.04,1.01-1.98,1.56-3.07Zm-2.3,20.94c.14-.56.31-1.15.52-1.78h0c1.23.55,2.32,1.03,3.38,1.5,0,0,0,0,0,0,0,0,0,0,0,0-.21.94-.29,1.79-.25,2.55.14,2.28,1.44,3.77,4.11,4.67,2.21.75,3.45-.62,4.38-2.66-2.05-2.2-4.15-4.42-6.23-6.67-2.37-2.55-2.93-4.29-1.87-6.69.24-.55.57-1.14.98-1.79,1.21-1.88,5.47-2.89,8.15-1.7,1.57.7,2.9,1.94,4.43,2.76,1.59.85,3.29,1.5,5.11,2.31,0,0,0,0,0,0,0,0,0,0,0,0-.47,1-1.02,1.96-1.45,2.97-.01.02-.02.05-.03.07-.13.31-.26.63-.37.95-.78,2.33-1.96,3.34-4.27,1.68,0,0,0,0,0,0,0,0,0,0,0,0,.19-.86.28-1.64.27-2.33-.04-3.02-1.96-4.48-5.82-4.35-.7.03-1.88.36-1.97.75-.1.42-.13.93-.08,1.41,0,0,0,.02,0,.03.03.23.07.45.14.65,0,.02.01.03.02.05.06.19.15.35.26.49,0,.01.02.03.03.04,1.83,2.28,3.75,4.52,5.9,6.49.94.86,1.3,1.84,1.34,2.8.04.95-.23,1.88-.55,2.65-.68,1.64-2.45,3.48-4.11,3.94-3.33.93-6.53-.51-9.25-2.5-2.86-2.09-3.69-4.48-2.76-8.31Zm-23.14-5.84c.6-.21,1.33-.83,1.48-1.4.91-3.47,1.69-6.97,2.47-10.47.09-.38-.02-.82-.12-1.22-.32-1.34-.67-2.68-1.1-4.34h-.02c.47.11.92.22,1.36.34,2.41.6,4.54,1.1,6.55,1.63,1.08.29,2.13.59,3.16.92.91.3,1.88.52,2.81.83,1.54.5,2.98,1.23,3.81,2.92,1.84,3.74-.18,8.25-4.16,9.46-.5.15-.99.31-1.99.63,1.32,2.58,2.72,5.04,3.8,7.64.32.76-.15,1.98-.56,2.84-.15.31-1.25.4-1.81.23,0,0-.02,0-.03,0,0,0,0,0,0,0-.04-.01-.09-.03-.13-.05-.58-.19-1.15-.42-1.67-.65-.55-.24-1.05-.48-1.44-.65-.57-2.74-1.07-5.15-1.57-7.55-.05-.26-.06-.62-.23-.76-1.2-1.01-2.41-2.02-3.71-2.88-.16-.05-1.36.91-1.34,1.35.06,1.45.48,2.88.76,4.32.23-.01.47-.03.7-.04,0,0,0,0,0,.01.01,0,.02,0,.04,0-.39.89-.79,1.79-1.38,3.14-2.5-.64-5.08-1.31-7.72-1.99,0,0,0,0,0,0-.01,0-.02,0-.03,0-.31-1.97-.06-3.49,2.07-4.24Zm-21.46-3.76c.48-.69,1.78-1.09,1.88-1.74.53-3.67.88-7.38,1.11-11.09.01-.2-.02-.4-.1-.6-.23-.6-.82-1.21-1.52-1.75,0,0,0,0,0,0,0,0,0,0-.01,0,.28-.9.56-1.79.85-2.73,5.39.92,10.67,1.77,15.92,2.77.33.06.76.33,1.09.64.34.31.58.66.56.89-.19,1.82-.66,3.63-1.25,5.37-.13.38-1.23.64-1.84.57-.22-.03-.47-.2-.69-.42-.22-.22-.4-.5-.46-.75-.14-.51-.38-1-.7-1.47-1.38-2.03-4.18-3.47-6.18-2.6-.9.39-1.5,2.04-1.69,3.21-.06.36.3.94.76,1.39.28.27.59.49.86.58,1.45.51,3.06.59,4.62.85h.01s.01.02.01.02c-.18,1.18-.33,2.21-.54,3.59-1.37-.17-2.83-.56-4.25-.44-.92.08-2.46.85-2.51,1.42-.06.73.05,1.65.34,2.41.17.44.4.82.68,1.08.01.01.02.03.04.04,1.91,1.65,4.45,1.14,6.13-.77,1.05-1.19,2.33-1.45,3.84-.79,0,0,0,0,0,0,0,0,0,0,.01,0-.3,1.59-.52,3.22-.94,4.8-.42,1.53-.85,2.73-3.19,2.11-4.06-1.07-8.29-1.52-12.42-2.35-.24-.05-.53-.2-.79-.4-.45-.32-.83-.77-.81-1.04.09-.97.62-1.97,1.19-2.8Zm-25.38-19.47h10.69c-.9,1.43-1.6,2.38-2.13,3.42-.5.98-.87,2.03-1.21,3.09-.09.28.03.79.24.99.5.49.97.66,1.4.65.98-.04,1.8-.98,2.43-1.46,1.02-.78,3.46-.89,2.59-3.28-.36-.99-.71-1.99-1.18-3.3.01,0,.02,0,.03,0,0,0,0,0,0,0,3.62.19,6.76.36,10.05.54v2.82c-2.99,1.82-5.82,3.54-8.96,5.44,2.78,4.53,5.42,8.83,8.45,13.78h-.03c-1.27,0-2.15,0-2.89,0-.43,0-.82,0-1.2,0-.24,0-.47,0-.68,0-3.07.01-2.76-.26-3.39-3.73-.46-2.54-2.21-4.83-3.37-7.21-4.16,1.76-4.46,3.51-1.77,6.69.55.65.37,1.92.55,3.04h-9.28c.11-1.57-.89-3.32,1.66-3.9.5-.11.92-1.66.95-2.56.1-3.24.06-6.49-.02-9.73-.01-.63-.35-1.3-.68-1.87-.58-.99-1.27-1.93-2.27-3.43h.01Zm-20.31,6.4c0-2.7,1-4.82,2.83-6.11,1.09-.78,2.48-1.25,4.13-1.37,1.74-.12,3.51.31,5.27.43,1.65.12,3.3.16,5.11.25v7.83h-.01s-3.58.01-3.58.01c-.46-3.78-1.43-4.47-5.84-4.24-1.33.07-2.24.4-2.8,1.14-.56.74-.78,1.9-.74,3.61.07,2.49.28,4.98.59,7.46.29,2.35,1.71,3.03,5.32,2.97,1.11-.02,1.93-.29,2.47-.82.53-.54.79-1.35.78-2.44,0-.62.07-1.24.11-2.08h0s0,0,0,0h3.96c.56,3.03.34,5.14-.56,6.6-1.14,1.88-3.39,2.69-6.49,3.02-6.35.69-10.53-2.94-10.56-8.67-.01-2.53,0-5.05,0-7.58Zm-25.35-.86c.04-.63.81-1.53,1.44-1.73,1.73-.55,3.55-.93,5.36-1.12,1.39-.14,1.89.53,1.94,1.34.04.48-.09,1.01-.28,1.44-.67,1.5-.88,2.96-.84,4.39.11,3.16,1.52,6.18,2.18,9.25.3,1.38,1.68,2.34,3.62,1.73,1.65-.51,3.32-.84,3.35-2.65,0-.25-.03-.54-.1-.85-.61-2.87-1.42-5.71-2.06-8.58,0-.01,0-.02,0-.03,0,0,0,0,0,0-.1-.45.36-.99.33-1.46,0-.13-.02-.26-.03-.38,0-.06-.01-.12-.02-.18-.01-.11-.03-.21-.05-.32-.01-.08-.02-.16-.04-.23-.08-.37-.21-.72-.4-1-.7-.99-1.63-1.82-2.47-2.71,0,0,.01-.02.02-.02,0,0-.01-.01-.02-.02.19-.28.37-.55.56-.83v.03c2.28-.19,4.57-.54,6.84-.44.58.03,1.62,2.16,1.58,2.19,0,0,0,0-.01,0,0,0,.01.03.01.03-1.36,1.04-1.68,2.15-1.59,3.29.13,1.46.91,2.95,1.02,4.38.19,2.57.65,5.13.65,7.69,0,0,0,0,0,.01,0,0,0,.02,0,.03,0,1.14-.57,2.49-1.32,3.38-2.29,2.7-9,3.56-11.84,1.58-2.66-1.85-2.69-5.02-3.5-7.75-.6-2.01-.68-4.18-1.28-6.19-.26-.86-1.27-1.47-1.87-2.25-.48-.62-1.21-1.34-1.17-1.97,0,0,0,0,0-.01,0,0,0-.02,0-.03Zm-22.09,4.79c.63-.15,1.66.37,2.27.96.09.08.17.17.23.25.15.19.29.38.44.57,1.19,1.54,2.34,3.16,3.6,4.96.56.8,1.14,1.62,1.77,2.5,0-2.52-.04-4.33,0-6.14.04-1.87.16-3.74.26-5.87,2.72-.63,5.5-1.27,8.18-1.89,0,0,0,0,0,.01,0,0,0,0,0,0,.94,1.95,1.63,3.51-.88,4.34,1.64,3.43,3.27,6.66,4.72,9.96.39.9.83,1.66,1.43,2.16.59.49,1.34.73,2.35.57,0,0,0,0,0,.01,0,0,0,0,0,0,1.93,3.13-.14,3.77-2.41,4.31-1.36.33-2.69.82-4.06,1-.54.07-1.44-.2-1.78-.56-.05-.05-.09-.11-.11-.17-.3-.74-.4-2.13.04-2.51,1.55-1.34,1.17-2.62.42-4.07-1.16-2.24-2.31-4.48-3.45-6.73-.18.04-.37.09-.55.13v15.22c-1.41.69-2.36.95-3.21.14-.29-.27-.56-.66-.84-1.19-1.9-3.6-4.32-6.91-6.77-10.73-.36.84-.76,1.34-.74,1.82.12,2.48.13,4.99.65,7.39.04.19.17.39.35.57.55.56,1.59,1.04,2.36,1.22.47.11.82.26,1.06.45.75.55.58,1.42.17,2.31-.48,1.05-6.16,2.55-7.3,2.26-.46-.12-.8-.29-1.06-.5-.76-.62-.69-1.57-.12-2.4,1.11-1.63,1.19-3.06.68-4.94-.66-2.44-1.06-5.02-1.08-7.55,0-1.15-.26-1.85-.76-2.24-.51-.38-1.27-.43-2.29-.26,0,0,0,0,0-.01,0,0,0,0,0,0-.33-.94-.63-1.84-1.02-2.97,2.54-.85,4.95-1.81,7.45-2.39Zm-25.65,10.25c2.19-1.49,4.89-2.22,7.36-3.31.7-.31,1.37-.7,2.06-1.06.83-.43,1.66-.86,2.54-1.32,0,0,0,.01,0,.02,0,0,0,0,0,0,1.13,2.51,2.13,4.74,3.21,7.13-.85.47-1.69.93-2.48,1.37-2.95-3.06-5.4-3.49-8.3-1.23-.8.63-1.59,2.14-1.37,2.98,0,.04.03.07.05.11.32.77,1.71,1.62,2.63,1.65,2.65.09,5.33-.17,7.97-.47,1.91-.21,3.38.4,4.38,1.47,1.69,1.78,2.07,4.84,1.04,7.43-1.31,3.3-9.16,6.96-13.26,4.6-1.55-.9-2.7-2.51-4.12-3.89,0,0,0,0,0,0,0,0-.01-.01-.02-.02,0,0,0,0,0,0v-.02s0,.01,0,.02c2.17-1.72,3.62-2.81,5.34-.23,1.32,1.98,3.38,1,5.07.34,1.49-.58,3.07-1.45,2.43-3.46-.03-.09-.07-.19-.12-.28-.36-.7-1.19-1.48-1.76-1.48-2.84-.04-5.68.33-8.52.4-2.55.07-4.48-1.24-5.66-3.75-.17-.36-.33-.74-.47-1.15-.83-2.42.17-4.62,1.98-5.85Zm-8.94,15.67c.18-.34.52-.7.9-1.16.2-.23.4-.48.61-.77,0,0,0,0,0,0,0,0,0,0,0-.01,0,0,0,0,0,0h.01s0,0,0,0c.99,1.09,1.49,1.65,1.99,2.2,0,0,0,0-.01,0h0c-.12.1-.23.21-.35.32-.42.39-.83.8-1.28,1.12-.19.14-.4.26-.61.36-.22.11-1.42-1.02-1.42-1.58,0-.16.06-.33.15-.5Z" fill="#fafafa"/><polygon points="403.99 127.19 403.99 127.2 403.99 127.2 403.99 127.19" fill="#fafafa"/><path d="m401.19,121.51c-2.3-.71-4.03.45-4.89,2.36-2.3,5.08-4.32,10.3-4.25,16.02,0,0,0,0,0,0,.03,2.21.97,3.82,3.16,4.5,2.09.64,3.26-.73,4.2-2.18,2.95-4.56,4.31-9.64,4.58-15.03,0,0,0,0,0,0,0-.35-.03-.69,0-1.04,0,0,0-.02,0-.03.03-.28.04-.55.04-.82-.02-1.84-.87-3.19-2.84-3.79Z" fill="#fafafa"/><path d="m347.46,124.05s0,0,0,0c-3.22-.08-5.59,2.88-5.74,7.14-.14,3.94,2.16,6.78,5.6,6.92,0,0,0,0,0,0,3.31.13,5.8-2.94,5.9-7.3h.01c.08-3.84-2.33-6.68-5.76-6.76Z" fill="#fafafa"/><path d="m458.16,144.14c2.98,1.12,5.66,2.13,8.33,3.13h0s.01-.03.02-.04c.58-1.2.86-2.65.86-3.98,0-1.73-.44-3.27-1.29-3.81-2.47-1.6-3.78-.85-7.91,4.68,0,0,0,0,0,0h0Z" fill="#fafafa"/><path d="m205.5,20.69c-2.5.59-4.91,1.54-7.45,2.39.39,1.13.7,2.01,1.02,2.96,0,0,0,0,0,.01,1.02-.16,1.78-.11,2.29.26.51.38.76,1.09.77,2.25.02,2.53.41,5.11,1.08,7.55.51,1.88.42,3.3-.68,4.94-.56.83-.63,1.77.11,2.39.25.21.6.38,1.06.5,1.14.29,6.82-1.21,7.3-2.26.41-.9.58-1.76-.17-2.31-.24-.18-.59-.33-1.05-.44-.77-.17-1.83-.66-2.37-1.23-.18-.19-.31-.38-.35-.57-.52-2.4-.53-4.91-.65-7.39-.02-.48.38-.98.74-1.82,0,0,0,0,0,0,2.45,3.82,4.88,7.14,6.78,10.74.28.53.55.91.83,1.18.85.81,1.8.55,3.21-.14v-15.22c.18-.04.37-.09.55-.13,0,0,0,0,0,0,1.15,2.25,2.3,4.5,3.46,6.74.75,1.45,1.13,2.73-.42,4.07-.45.38-.34,1.76-.04,2.51.02.05.06.11.1.16.33.36,1.23.63,1.78.56,1.37-.18,2.7-.67,4.06-1,2.27-.54,4.34-1.18,2.41-4.31,0,0,0,0,0,0-1.01.16-1.76-.08-2.36-.58-.59-.5-1.03-1.26-1.43-2.16-1.45-3.3-3.08-6.53-4.72-9.96,2.51-.83,1.82-2.39.88-4.34,0,0,0,0,0,0-2.68.62-5.45,1.26-8.18,1.89-.09,2.12-.21,4-.26,5.87-.03,1.81,0,3.62,0,6.14,0,0,0,0,0-.01-.63-.88-1.21-1.71-1.77-2.5-1.26-1.8-2.41-3.42-3.6-4.96-.15-.19-.29-.38-.44-.57-.07-.08-.15-.17-.23-.25-.6-.58-1.63-1.09-2.26-.95Z" fill="#0b0c0b"/><path d="m322.84,16.15c.42,1.65.78,2.99,1.1,4.34.09.4.21.84.12,1.22-.78,3.5-1.56,7-2.47,10.47-.15.57-.88,1.19-1.48,1.4-2.12.75-2.38,2.28-2.07,4.24,0,0,0,0,0,0,2.64.68,5.22,1.35,7.72,1.99.59-1.35.99-2.25,1.38-3.14-.01,0-.02,0-.04,0-.23.01-.47.03-.69.04,0,0,0,0,0-.01-.28-1.44-.7-2.87-.76-4.32-.02-.44,1.17-1.39,1.34-1.35,0,0,.01,0,.01,0,1.31.86,2.52,1.88,3.73,2.89.17.15.18.5.23.76.5,2.4,1,4.81,1.57,7.55.38.17.87.4,1.41.64.51.23,1.08.46,1.67.65.05.01.09.03.13.05,0,0,.02,0,.03,0,.56.17,1.66.08,1.81-.23.41-.86.88-2.08.56-2.84-1.08-2.6-2.48-5.06-3.8-7.64,1-.32,1.49-.48,1.99-.63,3.98-1.21,6-5.72,4.16-9.46-.83-1.69-2.27-2.42-3.81-2.92-.92-.3-1.88-.52-2.78-.82-1.04-.34-2.1-.64-3.19-.93-2.01-.54-4.14-1.03-6.55-1.63-.44-.11-.88-.22-1.33-.34h.02Zm4.86,9.97c.2-1.73.05-3.95,2.81-3.92,2.57.03,4.56.95,5.39,2.35.28.47.43.99.43,1.55h0c.22,2.15-.63,3.2-2.89,3.12-3.03-.11-5.92-1.51-5.74-3.09,0,0,0,0,0,0,0,0,0,0,0,0Z" fill="#0b0c0b"/><path d="m276.21,15.64c.08,3.24.12,6.49.02,9.73-.03.9-.45,2.45-.95,2.56-2.55.58-1.55,2.32-1.66,3.9h9.25c-.18-1.12,0-2.39-.55-3.04-2.69-3.18-2.39-4.93,1.77-6.69,0,0,.02,0,.02-.01,1.16,2.38,2.92,4.68,3.38,7.22.63,3.45.32,3.74,3.36,3.73.21,0,.43,0,.68,0,.38,0,.77,0,1.2,0,.74,0,1.62,0,2.89,0h.03c-3.03-4.95-5.67-9.25-8.45-13.78,3.14-1.9,5.97-3.62,8.96-5.44v-2.82c-3.29-.18-6.43-.35-10.05-.54,0,0,0,0,0,0,.47,1.31.82,2.31,1.18,3.3.87,2.39-1.57,2.5-2.59,3.28-.64.49-1.48,1.45-2.47,1.46-.44,0-.91-.17-1.4-.65-.21-.2-.33-.71-.24-.99.34-1.06.71-2.11,1.21-3.09.53-1.04,1.23-1.99,2.13-3.42h-10.67c1,1.5,1.69,2.43,2.27,3.43.33.57.67,1.24.68,1.87Z" fill="#0b0c0b"/><path d="m298.24,33.66c.26.19.55.34.78.39,4.13.84,8.36,1.28,12.42,2.35,2.34.62,2.77-.57,3.19-2.11.42-1.57.64-3.2.94-4.79,0,0,0,0,0,0-1.51-.66-2.79-.4-3.84.79-1.68,1.91-4.22,2.42-6.13.77,0,0,0,0,0,0-.01-.01-.02-.03-.03-.04-.29-.26-.51-.64-.68-1.08-.29-.76-.41-1.69-.35-2.42.05-.57,1.59-1.34,2.51-1.42,1.42-.12,2.88.27,4.25.44.21-1.39.36-2.41.54-3.59h0s-.01-.01-.01-.01c-1.56-.26-3.17-.34-4.62-.85-.27-.1-.58-.32-.86-.58-.46-.45-.83-1.03-.77-1.4.2-1.17.8-2.82,1.69-3.21,2.01-.87,4.81.58,6.19,2.61.32.47.56.96.7,1.47.07.24.25.52.46.75.21.22.46.39.68.41.61.07,1.71-.19,1.84-.57.59-1.74,1.05-3.55,1.25-5.37.02-.23-.22-.57-.55-.88-.34-.31-.76-.58-1.09-.64-5.25-1-10.53-1.85-15.92-2.77-.29.94-.57,1.83-.85,2.73,0,0,0,0,.01,0,.71.54,1.29,1.14,1.52,1.75.08.2.11.4.1.6-.23,3.71-.58,7.42-1.11,11.09-.1.65-1.4,1.05-1.88,1.74-.57.83-1.1,1.83-1.19,2.8-.03.28.36.72.81,1.04Z" fill="#0b0c0b"/><path d="m178.33,37.93c1.19,2.49,3.11,3.79,5.65,3.73,2.84-.07,5.68-.44,8.52-.4.58,0,1.41.8,1.77,1.5.05.1.09.19.12.28.64,2.01-.94,2.88-2.43,3.46-1.69.66-3.75,1.64-5.07-.34-1.73-2.59-3.18-1.49-5.34.23,0,0,.01.01.02.02,1.43,1.38,2.56,2.99,4.11,3.88,4.1,2.36,11.95-1.3,13.26-4.6,1.02-2.59.64-5.63-1.03-7.41-1-1.07-2.47-1.68-4.38-1.47-2.64.3-5.32.56-7.97.47-.92-.03-2.31-.88-2.63-1.65-.02-.04-.05-.09-.06-.13-.22-.84.56-2.35,1.37-2.98,2.9-2.26,5.35-1.84,8.3,1.23.79-.44,1.63-.9,2.48-1.37-1.08-2.38-2.07-4.61-3.2-7.11,0,0,0-.01,0-.02-.88.46-1.71.89-2.54,1.32-.69.36-1.36.75-2.06,1.06-2.47,1.09-5.17,1.82-7.36,3.31-1.81,1.23-2.81,3.43-1.98,5.85.14.41.3.79.47,1.15Z" fill="#0b0c0b"/><path d="m181.54,46.38s0,0,0,0c0,0-.01-.01-.02-.02v.02Z" fill="#0b0c0b"/><path d="m345.98,47.71c2.73,1.99,5.93,3.43,9.25,2.5,1.65-.46,3.43-2.3,4.11-3.94.32-.77.59-1.69.55-2.64-.04-.96-.4-1.93-1.34-2.8-2.15-1.97-4.07-4.21-5.9-6.49-.01-.01-.02-.03-.03-.04-.1-.14-.19-.31-.26-.49,0-.02-.01-.03-.02-.05-.07-.2-.11-.43-.14-.65,0,0,0-.02,0-.03-.05-.49-.02-1.01.08-1.42.09-.4,1.27-.72,1.97-.75,3.86-.14,5.78,1.33,5.82,4.36,0,.7-.08,1.47-.27,2.33,0,0,0,0,0,0,2.31,1.66,3.49.65,4.27-1.68.11-.32.23-.63.37-.94.01-.02.02-.05.03-.07.44-1,.98-1.97,1.45-2.97,0,0,0,0,0,0-1.82-.81-3.52-1.46-5.11-2.31-1.53-.82-2.86-2.06-4.43-2.76-2.68-1.19-6.94-.18-8.15,1.7-.41.64-.74,1.23-.98,1.79-1.05,2.4-.48,4.13,1.87,6.68,2.08,2.25,4.18,4.47,6.23,6.67,0,0,0,0,0,0-.93,2.05-2.17,3.41-4.38,2.66-2.66-.9-3.97-2.38-4.11-4.67-.05-.76.04-1.61.24-2.55,0,0,0,0,0,0-1.06-.47-2.15-.95-3.38-1.49h0c-.21.62-.38,1.21-.52,1.77-.92,3.82-.1,6.21,2.76,8.3Z" fill="#0b0c0b"/><path d="m230.62,20.11c.6,2.01.69,4.18,1.28,6.19.81,2.73.84,5.9,3.5,7.75,2.84,1.98,9.56,1.13,11.84-1.58.75-.88,1.32-2.23,1.32-3.37,0,0,0,0,0-.01,0-2.56-.46-5.12-.65-7.69-.11-1.43-.89-2.93-1.02-4.38-.1-1.15.21-2.27,1.58-3.32,0,0,0,0,.01,0,.04-.03-1-2.16-1.58-2.19-2.27-.1-4.56.25-6.84.44v-.03c-.19.28-.37.55-.56.83,0,0,.01.01.02.02.84.89,1.76,1.71,2.45,2.69.2.29.32.66.4,1.04.02.08.03.16.04.23.02.11.04.21.05.32,0,.06.01.12.02.18.01.12.03.25.04.37,0,0,0,.01,0,.02.03.48-.43,1.02-.33,1.46,0,0,0,0,0,0,.64,2.87,1.45,5.7,2.06,8.57.07.33.1.63.1.89-.03,1.81-1.7,2.13-3.35,2.65-1.94.61-3.32-.35-3.62-1.73-.66-3.07-2.06-6.09-2.18-9.25-.05-1.44.16-2.91.84-4.43.19-.43.31-.94.28-1.4-.05-.81-.54-1.48-1.94-1.34-1.81.19-3.63.57-5.36,1.12-.63.2-1.4,1.1-1.44,1.73,0,0,0,.02,0,.03-.02.62.69,1.33,1.17,1.94.6.78,1.62,1.39,1.87,2.25Z" fill="#0b0c0b"/><path d="m252.94,16.74c0,2.53-.01,5.05,0,7.58.03,5.73,4.21,9.35,10.56,8.67,3.09-.34,5.34-1.14,6.48-3.01.89-1.46,1.12-3.56.56-6.6h-3.96s0,0,0,0c-.05.83-.11,1.45-.11,2.07.01,1.1-.25,1.91-.79,2.45-.54.53-1.36.8-2.47.82-3.61.06-5.03-.62-5.32-2.97-.31-2.48-.52-4.97-.59-7.46-.04-1.71.17-2.87.74-3.61.56-.74,1.47-1.08,2.81-1.15,4.41-.23,5.38.46,5.84,4.24h3.58v-7.83c-1.81-.09-3.46-.13-5.11-.25-1.76-.12-3.53-.55-5.27-.43-1.65.11-3.04.59-4.13,1.37-1.82,1.29-2.82,3.42-2.82,6.1Z" fill="#0b0c0b"/><path d="m345.48,22.68c.7,1.22-.68,2.7-1.07,4.06,0,0,.01,0,.02,0,2.71.44,4.66-1.61,5.85-6.09,0,0,0,0,0-.01-1.55-.7-3.11-1.41-4.76-2.16-.55,1.09-1.03,2.03-1.56,3.07,0,0,.01,0,.02,0,.81.34,1.27.72,1.5,1.12Z" fill="#0b0c0b"/><path d="m344.41,26.75s0,0,0,0c0,0,0,0-.01,0h.01Z" fill="#0b0c0b"/><path d="m368.41,47.16c.03.28.31.67.63.99.33.33.69.59.8.54h0c.84-.39,1.49-1.18,2.21-1.82-.51-.56-1.02-1.11-2.01-2.2h0c-.81,1.14-1.63,1.8-1.63,2.45,0,.01,0,.03,0,.04Z" fill="#0b0c0b"/><path d="m172.18,48.67c.21-.09.41-.21.6-.35.45-.32.86-.73,1.28-1.12.12-.11.23-.22.35-.32,0,0,0,0,.01,0-.51-.56-1.01-1.12-1.99-2.2,0,0,0,0,0,.01-.21.28-.42.53-.61.76-.39.45-.72.82-.9,1.16-.09.17-.14.33-.14.49-.01.55,1.2,1.68,1.42,1.58Z" fill="#0b0c0b"/><polygon points="172.42 44.65 172.43 44.66 172.43 44.65 172.42 44.65" fill="#0b0c0b"/><path d="m333.44,29.21c2.26.08,3.11-.98,2.88-3.12h0c0-.56-.15-1.08-.42-1.54-.83-1.4-2.82-2.32-5.39-2.35-2.76-.03-2.61,2.19-2.81,3.92,0,0,0,0,0,0-.17,1.58,2.72,2.98,5.74,3.08Z" fill="#fafafa"/></svg>